%TF.GenerationSoftware,KiCad,Pcbnew,(6.0.7)*%
%TF.CreationDate,2022-10-04T00:35:33-03:00*%
%TF.ProjectId,wireless,77697265-6c65-4737-932e-6b696361645f,rev?*%
%TF.SameCoordinates,Original*%
%TF.FileFunction,Soldermask,Top*%
%TF.FilePolarity,Negative*%
%FSLAX46Y46*%
G04 Gerber Fmt 4.6, Leading zero omitted, Abs format (unit mm)*
G04 Created by KiCad (PCBNEW (6.0.7)) date 2022-10-04 00:35:33*
%MOMM*%
%LPD*%
G01*
G04 APERTURE LIST*
G04 Aperture macros list*
%AMRoundRect*
0 Rectangle with rounded corners*
0 $1 Rounding radius*
0 $2 $3 $4 $5 $6 $7 $8 $9 X,Y pos of 4 corners*
0 Add a 4 corners polygon primitive as box body*
4,1,4,$2,$3,$4,$5,$6,$7,$8,$9,$2,$3,0*
0 Add four circle primitives for the rounded corners*
1,1,$1+$1,$2,$3*
1,1,$1+$1,$4,$5*
1,1,$1+$1,$6,$7*
1,1,$1+$1,$8,$9*
0 Add four rect primitives between the rounded corners*
20,1,$1+$1,$2,$3,$4,$5,0*
20,1,$1+$1,$4,$5,$6,$7,0*
20,1,$1+$1,$6,$7,$8,$9,0*
20,1,$1+$1,$8,$9,$2,$3,0*%
G04 Aperture macros list end*
%ADD10C,3.200000*%
%ADD11RoundRect,0.135000X0.185000X-0.135000X0.185000X0.135000X-0.185000X0.135000X-0.185000X-0.135000X0*%
%ADD12R,0.400000X1.650000*%
%ADD13R,1.825000X0.700000*%
%ADD14R,2.000000X1.500000*%
%ADD15R,1.350000X2.000000*%
%ADD16R,1.430000X2.500000*%
%ADD17O,1.100000X1.500000*%
%ADD18O,1.350000X1.700000*%
%ADD19RoundRect,0.062500X0.062500X-0.350000X0.062500X0.350000X-0.062500X0.350000X-0.062500X-0.350000X0*%
%ADD20RoundRect,0.062500X0.350000X-0.062500X0.350000X0.062500X-0.350000X0.062500X-0.350000X-0.062500X0*%
%ADD21R,2.600000X2.600000*%
%ADD22RoundRect,0.135000X0.135000X0.185000X-0.135000X0.185000X-0.135000X-0.185000X0.135000X-0.185000X0*%
%ADD23RoundRect,0.140000X-0.140000X-0.170000X0.140000X-0.170000X0.140000X0.170000X-0.140000X0.170000X0*%
%ADD24RoundRect,0.140000X0.140000X0.170000X-0.140000X0.170000X-0.140000X-0.170000X0.140000X-0.170000X0*%
%ADD25RoundRect,0.225000X-0.225000X-0.250000X0.225000X-0.250000X0.225000X0.250000X-0.225000X0.250000X0*%
%ADD26RoundRect,0.135000X-0.185000X0.135000X-0.185000X-0.135000X0.185000X-0.135000X0.185000X0.135000X0*%
%ADD27RoundRect,0.225000X0.225000X0.250000X-0.225000X0.250000X-0.225000X-0.250000X0.225000X-0.250000X0*%
%ADD28RoundRect,0.140000X-0.170000X0.140000X-0.170000X-0.140000X0.170000X-0.140000X0.170000X0.140000X0*%
%ADD29RoundRect,0.225000X0.250000X-0.225000X0.250000X0.225000X-0.250000X0.225000X-0.250000X-0.225000X0*%
%ADD30RoundRect,0.200000X0.275000X-0.200000X0.275000X0.200000X-0.275000X0.200000X-0.275000X-0.200000X0*%
%ADD31RoundRect,0.041300X0.563700X0.253700X-0.563700X0.253700X-0.563700X-0.253700X0.563700X-0.253700X0*%
%ADD32RoundRect,0.140000X0.170000X-0.140000X0.170000X0.140000X-0.170000X0.140000X-0.170000X-0.140000X0*%
%ADD33R,1.500000X2.000000*%
%ADD34R,3.800000X2.000000*%
%ADD35R,0.450000X0.700000*%
%ADD36RoundRect,0.062500X-0.062500X0.375000X-0.062500X-0.375000X0.062500X-0.375000X0.062500X0.375000X0*%
%ADD37RoundRect,0.062500X-0.375000X0.062500X-0.375000X-0.062500X0.375000X-0.062500X0.375000X0.062500X0*%
%ADD38R,1.600000X1.600000*%
%ADD39R,1.550000X1.300000*%
%ADD40RoundRect,0.225000X-0.250000X0.225000X-0.250000X-0.225000X0.250000X-0.225000X0.250000X0.225000X0*%
%ADD41R,0.900000X2.000000*%
%ADD42R,2.000000X0.900000*%
%ADD43R,5.000000X5.000000*%
%ADD44RoundRect,0.135000X-0.135000X-0.185000X0.135000X-0.185000X0.135000X0.185000X-0.135000X0.185000X0*%
%ADD45R,1.730000X2.030000*%
%ADD46O,1.730000X2.030000*%
%ADD47R,2.000000X1.100000*%
%ADD48RoundRect,0.218750X0.218750X0.256250X-0.218750X0.256250X-0.218750X-0.256250X0.218750X-0.256250X0*%
G04 APERTURE END LIST*
D10*
%TO.C,REF\u002A\u002A*%
X130745000Y-124870000D03*
%TD*%
%TO.C,REF\u002A\u002A*%
X74230000Y-124870000D03*
%TD*%
%TO.C,REF\u002A\u002A*%
X75500000Y-73435000D03*
%TD*%
D11*
%TO.C,R15*%
X103759000Y-100535200D03*
X103759000Y-99515200D03*
%TD*%
D12*
%TO.C,J1*%
X102474000Y-121031000D03*
X103124000Y-121031000D03*
X103774000Y-121031000D03*
X104424000Y-121031000D03*
X105074000Y-121031000D03*
D13*
X106774000Y-122231000D03*
D14*
X106674000Y-120911000D03*
X100924000Y-120931000D03*
D15*
X101044000Y-122981000D03*
D16*
X104734000Y-124181000D03*
D17*
X101354000Y-120911000D03*
D18*
X101044000Y-123911000D03*
D13*
X100824000Y-122231000D03*
D18*
X106504000Y-123911000D03*
D17*
X106194000Y-120911000D03*
D15*
X106524000Y-122981000D03*
D16*
X102814000Y-124181000D03*
%TD*%
D19*
%TO.C,U5*%
X102229600Y-105874300D03*
X102729600Y-105874300D03*
X103229600Y-105874300D03*
X103729600Y-105874300D03*
X104229600Y-105874300D03*
X104729600Y-105874300D03*
D20*
X105417100Y-105186800D03*
X105417100Y-104686800D03*
X105417100Y-104186800D03*
X105417100Y-103686800D03*
X105417100Y-103186800D03*
X105417100Y-102686800D03*
D19*
X104729600Y-101999300D03*
X104229600Y-101999300D03*
X103729600Y-101999300D03*
X103229600Y-101999300D03*
X102729600Y-101999300D03*
X102229600Y-101999300D03*
D20*
X101542100Y-102686800D03*
X101542100Y-103186800D03*
X101542100Y-103686800D03*
X101542100Y-104186800D03*
X101542100Y-104686800D03*
X101542100Y-105186800D03*
D21*
X103479600Y-103936800D03*
%TD*%
D22*
%TO.C,R8*%
X91423200Y-104241600D03*
X90403200Y-104241600D03*
%TD*%
D23*
%TO.C,C5*%
X104345800Y-114477800D03*
X105305800Y-114477800D03*
%TD*%
D24*
%TO.C,C2*%
X87129350Y-122179400D03*
X86169350Y-122179400D03*
%TD*%
D25*
%TO.C,C13*%
X78789000Y-110900000D03*
X80339000Y-110900000D03*
%TD*%
D26*
%TO.C,R7*%
X124165000Y-112606000D03*
X124165000Y-113626000D03*
%TD*%
D23*
%TO.C,C17*%
X87180000Y-100750000D03*
X88140000Y-100750000D03*
%TD*%
D27*
%TO.C,C8*%
X76529000Y-111154000D03*
X74979000Y-111154000D03*
%TD*%
D28*
%TO.C,C3*%
X127025000Y-112638000D03*
X127025000Y-113598000D03*
%TD*%
D24*
%TO.C,C4*%
X102435600Y-114477800D03*
X101475600Y-114477800D03*
%TD*%
D23*
%TO.C,C19*%
X106809600Y-105892600D03*
X107769600Y-105892600D03*
%TD*%
D29*
%TO.C,C14*%
X78802000Y-109135000D03*
X78802000Y-107585000D03*
%TD*%
D22*
%TO.C,R14*%
X110365000Y-103860600D03*
X109345000Y-103860600D03*
%TD*%
D30*
%TO.C,R2*%
X102595000Y-112483400D03*
X102595000Y-110833400D03*
%TD*%
D23*
%TO.C,C20*%
X106809600Y-107010200D03*
X107769600Y-107010200D03*
%TD*%
D11*
%TO.C,R13*%
X129189800Y-94168800D03*
X129189800Y-93148800D03*
%TD*%
D31*
%TO.C,U1*%
X104695000Y-118094800D03*
X104695000Y-117144800D03*
X104695000Y-116194800D03*
X102185000Y-116194800D03*
X102185000Y-117144800D03*
X102185000Y-118094800D03*
%TD*%
D11*
%TO.C,R11*%
X127939800Y-94168800D03*
X127939800Y-93148800D03*
%TD*%
D23*
%TO.C,C16*%
X83700000Y-100750000D03*
X84660000Y-100750000D03*
%TD*%
%TO.C,C15*%
X131720000Y-71784000D03*
X132680000Y-71784000D03*
%TD*%
D22*
%TO.C,R3*%
X92723200Y-84407800D03*
X91703200Y-84407800D03*
%TD*%
D32*
%TO.C,C11*%
X123178000Y-105842800D03*
X123178000Y-104882800D03*
%TD*%
D27*
%TO.C,C1*%
X87132550Y-124440000D03*
X85582550Y-124440000D03*
%TD*%
D32*
%TO.C,C7*%
X123370000Y-108710000D03*
X123370000Y-107750000D03*
%TD*%
D28*
%TO.C,C8*%
X125665000Y-112636000D03*
X125665000Y-113596000D03*
%TD*%
D33*
%TO.C,U3*%
X81102000Y-113410000D03*
D34*
X78802000Y-119710000D03*
D33*
X78802000Y-113410000D03*
X76502000Y-113410000D03*
%TD*%
D22*
%TO.C,R10*%
X110365000Y-102717600D03*
X109345000Y-102717600D03*
%TD*%
D35*
%TO.C,Q2*%
X86510000Y-104250000D03*
X87810000Y-104250000D03*
X87160000Y-102250000D03*
%TD*%
D36*
%TO.C,U2*%
X127125000Y-108030500D03*
X126625000Y-108030500D03*
X126125000Y-108030500D03*
X125625000Y-108030500D03*
D37*
X124937500Y-108718000D03*
X124937500Y-109218000D03*
X124937500Y-109718000D03*
X124937500Y-110218000D03*
D36*
X125625000Y-110905500D03*
X126125000Y-110905500D03*
X126625000Y-110905500D03*
X127125000Y-110905500D03*
D37*
X127812500Y-110218000D03*
X127812500Y-109718000D03*
X127812500Y-109218000D03*
X127812500Y-108718000D03*
D38*
X126375000Y-109468000D03*
%TD*%
D39*
%TO.C,SW2*%
X94385000Y-94600000D03*
X102335000Y-94600000D03*
X94385000Y-90100000D03*
X102335000Y-90100000D03*
%TD*%
D29*
%TO.C,C12*%
X124714000Y-105816400D03*
X124714000Y-104266400D03*
%TD*%
D11*
%TO.C,R5*%
X128665000Y-113626000D03*
X128665000Y-112606000D03*
%TD*%
D40*
%TO.C,C9*%
X131415000Y-111841000D03*
X131415000Y-113391000D03*
%TD*%
D41*
%TO.C,U4*%
X133019800Y-73803600D03*
X131749800Y-73803600D03*
X130479800Y-73803600D03*
X129209800Y-73803600D03*
X127939800Y-73803600D03*
X126669800Y-73803600D03*
X125399800Y-73803600D03*
X124129800Y-73803600D03*
X122859800Y-73803600D03*
X121589800Y-73803600D03*
X120319800Y-73803600D03*
X119049800Y-73803600D03*
X117779800Y-73803600D03*
X116509800Y-73803600D03*
D42*
X115509800Y-76588600D03*
X115509800Y-77858600D03*
X115509800Y-79128600D03*
X115509800Y-80398600D03*
X115509800Y-81668600D03*
X115509800Y-82938600D03*
X115509800Y-84208600D03*
X115509800Y-85478600D03*
X115509800Y-86748600D03*
X115509800Y-88018600D03*
D41*
X116509800Y-90803600D03*
X117779800Y-90803600D03*
X119049800Y-90803600D03*
X120319800Y-90803600D03*
X121589800Y-90803600D03*
X122859800Y-90803600D03*
X124129800Y-90803600D03*
X125399800Y-90803600D03*
X126669800Y-90803600D03*
X127939800Y-90803600D03*
X129209800Y-90803600D03*
X130479800Y-90803600D03*
X131749800Y-90803600D03*
X133019800Y-90803600D03*
D43*
X125519800Y-81303600D03*
%TD*%
D44*
%TO.C,R12*%
X109370400Y-106500000D03*
X110390400Y-106500000D03*
%TD*%
D22*
%TO.C,R6*%
X131380000Y-107979000D03*
X130360000Y-107979000D03*
%TD*%
D35*
%TO.C,Q1*%
X83010000Y-104250000D03*
X84310000Y-104250000D03*
X83660000Y-102250000D03*
%TD*%
D30*
%TO.C,R1*%
X104296800Y-112483400D03*
X104296800Y-110833400D03*
%TD*%
D22*
%TO.C,R4*%
X92723200Y-82657800D03*
X91703200Y-82657800D03*
%TD*%
D39*
%TO.C,SW1*%
X82935000Y-94575000D03*
X90885000Y-94575000D03*
X82935000Y-90075000D03*
X90885000Y-90075000D03*
%TD*%
D45*
%TO.C,J2*%
X119898000Y-123311000D03*
D46*
X117358000Y-123311000D03*
X114818000Y-123311000D03*
%TD*%
D23*
%TO.C,C18*%
X109375000Y-105175000D03*
X110335000Y-105175000D03*
%TD*%
D22*
%TO.C,R9*%
X91423200Y-105750000D03*
X90403200Y-105750000D03*
%TD*%
D47*
%TO.C,D1*%
X84784000Y-81006000D03*
X84784000Y-82706000D03*
X84784000Y-84406000D03*
X89584000Y-84406000D03*
X89584000Y-82706000D03*
X89584000Y-81006000D03*
%TD*%
D48*
%TO.C,FB1*%
X83399500Y-123164000D03*
X81824500Y-123164000D03*
%TD*%
M02*
