%TF.GenerationSoftware,KiCad,Pcbnew,(6.0.7)*%
%TF.CreationDate,2022-10-04T00:35:33-03:00*%
%TF.ProjectId,wireless,77697265-6c65-4737-932e-6b696361645f,rev?*%
%TF.SameCoordinates,Original*%
%TF.FileFunction,Legend,Top*%
%TF.FilePolarity,Positive*%
%FSLAX46Y46*%
G04 Gerber Fmt 4.6, Leading zero omitted, Abs format (unit mm)*
G04 Created by KiCad (PCBNEW (6.0.7)) date 2022-10-04 00:35:33*
%MOMM*%
%LPD*%
G01*
G04 APERTURE LIST*
%ADD10C,0.150000*%
%ADD11C,0.120000*%
%ADD12C,0.127000*%
%ADD13C,0.200000*%
G04 APERTURE END LIST*
D10*
%TO.C,REF\u002A\u002A*%
X129411666Y-121122380D02*
X129078333Y-120646190D01*
X128840238Y-121122380D02*
X128840238Y-120122380D01*
X129221190Y-120122380D01*
X129316428Y-120170000D01*
X129364047Y-120217619D01*
X129411666Y-120312857D01*
X129411666Y-120455714D01*
X129364047Y-120550952D01*
X129316428Y-120598571D01*
X129221190Y-120646190D01*
X128840238Y-120646190D01*
X129840238Y-120598571D02*
X130173571Y-120598571D01*
X130316428Y-121122380D02*
X129840238Y-121122380D01*
X129840238Y-120122380D01*
X130316428Y-120122380D01*
X131078333Y-120598571D02*
X130745000Y-120598571D01*
X130745000Y-121122380D02*
X130745000Y-120122380D01*
X131221190Y-120122380D01*
X131745000Y-120122380D02*
X131745000Y-120360476D01*
X131506904Y-120265238D02*
X131745000Y-120360476D01*
X131983095Y-120265238D01*
X131602142Y-120550952D02*
X131745000Y-120360476D01*
X131887857Y-120550952D01*
X132506904Y-120122380D02*
X132506904Y-120360476D01*
X132268809Y-120265238D02*
X132506904Y-120360476D01*
X132745000Y-120265238D01*
X132364047Y-120550952D02*
X132506904Y-120360476D01*
X132649761Y-120550952D01*
X72896666Y-121122380D02*
X72563333Y-120646190D01*
X72325238Y-121122380D02*
X72325238Y-120122380D01*
X72706190Y-120122380D01*
X72801428Y-120170000D01*
X72849047Y-120217619D01*
X72896666Y-120312857D01*
X72896666Y-120455714D01*
X72849047Y-120550952D01*
X72801428Y-120598571D01*
X72706190Y-120646190D01*
X72325238Y-120646190D01*
X73325238Y-120598571D02*
X73658571Y-120598571D01*
X73801428Y-121122380D02*
X73325238Y-121122380D01*
X73325238Y-120122380D01*
X73801428Y-120122380D01*
X74563333Y-120598571D02*
X74230000Y-120598571D01*
X74230000Y-121122380D02*
X74230000Y-120122380D01*
X74706190Y-120122380D01*
X75230000Y-120122380D02*
X75230000Y-120360476D01*
X74991904Y-120265238D02*
X75230000Y-120360476D01*
X75468095Y-120265238D01*
X75087142Y-120550952D02*
X75230000Y-120360476D01*
X75372857Y-120550952D01*
X75991904Y-120122380D02*
X75991904Y-120360476D01*
X75753809Y-120265238D02*
X75991904Y-120360476D01*
X76230000Y-120265238D01*
X75849047Y-120550952D02*
X75991904Y-120360476D01*
X76134761Y-120550952D01*
X74166666Y-69687380D02*
X73833333Y-69211190D01*
X73595238Y-69687380D02*
X73595238Y-68687380D01*
X73976190Y-68687380D01*
X74071428Y-68735000D01*
X74119047Y-68782619D01*
X74166666Y-68877857D01*
X74166666Y-69020714D01*
X74119047Y-69115952D01*
X74071428Y-69163571D01*
X73976190Y-69211190D01*
X73595238Y-69211190D01*
X74595238Y-69163571D02*
X74928571Y-69163571D01*
X75071428Y-69687380D02*
X74595238Y-69687380D01*
X74595238Y-68687380D01*
X75071428Y-68687380D01*
X75833333Y-69163571D02*
X75500000Y-69163571D01*
X75500000Y-69687380D02*
X75500000Y-68687380D01*
X75976190Y-68687380D01*
X76500000Y-68687380D02*
X76500000Y-68925476D01*
X76261904Y-68830238D02*
X76500000Y-68925476D01*
X76738095Y-68830238D01*
X76357142Y-69115952D02*
X76500000Y-68925476D01*
X76642857Y-69115952D01*
X77261904Y-68687380D02*
X77261904Y-68925476D01*
X77023809Y-68830238D02*
X77261904Y-68925476D01*
X77500000Y-68830238D01*
X77119047Y-69115952D02*
X77261904Y-68925476D01*
X77404761Y-69115952D01*
%TO.C,R15*%
X104146380Y-98334857D02*
X103670190Y-98668190D01*
X104146380Y-98906285D02*
X103146380Y-98906285D01*
X103146380Y-98525333D01*
X103194000Y-98430095D01*
X103241619Y-98382476D01*
X103336857Y-98334857D01*
X103479714Y-98334857D01*
X103574952Y-98382476D01*
X103622571Y-98430095D01*
X103670190Y-98525333D01*
X103670190Y-98906285D01*
X104146380Y-97382476D02*
X104146380Y-97953904D01*
X104146380Y-97668190D02*
X103146380Y-97668190D01*
X103289238Y-97763428D01*
X103384476Y-97858666D01*
X103432095Y-97953904D01*
X103146380Y-96477714D02*
X103146380Y-96953904D01*
X103622571Y-97001523D01*
X103574952Y-96953904D01*
X103527333Y-96858666D01*
X103527333Y-96620571D01*
X103574952Y-96525333D01*
X103622571Y-96477714D01*
X103717809Y-96430095D01*
X103955904Y-96430095D01*
X104051142Y-96477714D01*
X104098761Y-96525333D01*
X104146380Y-96620571D01*
X104146380Y-96858666D01*
X104098761Y-96953904D01*
X104051142Y-97001523D01*
%TO.C,J1*%
X106916666Y-118734380D02*
X106916666Y-119448666D01*
X106869047Y-119591523D01*
X106773809Y-119686761D01*
X106630952Y-119734380D01*
X106535714Y-119734380D01*
X107916666Y-119734380D02*
X107345238Y-119734380D01*
X107630952Y-119734380D02*
X107630952Y-118734380D01*
X107535714Y-118877238D01*
X107440476Y-118972476D01*
X107345238Y-119020095D01*
%TO.C,U5*%
X100773095Y-100192380D02*
X100773095Y-101001904D01*
X100820714Y-101097142D01*
X100868333Y-101144761D01*
X100963571Y-101192380D01*
X101154047Y-101192380D01*
X101249285Y-101144761D01*
X101296904Y-101097142D01*
X101344523Y-101001904D01*
X101344523Y-100192380D01*
X102296904Y-100192380D02*
X101820714Y-100192380D01*
X101773095Y-100668571D01*
X101820714Y-100620952D01*
X101915952Y-100573333D01*
X102154047Y-100573333D01*
X102249285Y-100620952D01*
X102296904Y-100668571D01*
X102344523Y-100763809D01*
X102344523Y-101001904D01*
X102296904Y-101097142D01*
X102249285Y-101144761D01*
X102154047Y-101192380D01*
X101915952Y-101192380D01*
X101820714Y-101144761D01*
X101773095Y-101097142D01*
%TO.C,R8*%
X92753133Y-104668580D02*
X92419800Y-104192390D01*
X92181704Y-104668580D02*
X92181704Y-103668580D01*
X92562657Y-103668580D01*
X92657895Y-103716200D01*
X92705514Y-103763819D01*
X92753133Y-103859057D01*
X92753133Y-104001914D01*
X92705514Y-104097152D01*
X92657895Y-104144771D01*
X92562657Y-104192390D01*
X92181704Y-104192390D01*
X93324561Y-104097152D02*
X93229323Y-104049533D01*
X93181704Y-104001914D01*
X93134085Y-103906676D01*
X93134085Y-103859057D01*
X93181704Y-103763819D01*
X93229323Y-103716200D01*
X93324561Y-103668580D01*
X93515038Y-103668580D01*
X93610276Y-103716200D01*
X93657895Y-103763819D01*
X93705514Y-103859057D01*
X93705514Y-103906676D01*
X93657895Y-104001914D01*
X93610276Y-104049533D01*
X93515038Y-104097152D01*
X93324561Y-104097152D01*
X93229323Y-104144771D01*
X93181704Y-104192390D01*
X93134085Y-104287628D01*
X93134085Y-104478104D01*
X93181704Y-104573342D01*
X93229323Y-104620961D01*
X93324561Y-104668580D01*
X93515038Y-104668580D01*
X93610276Y-104620961D01*
X93657895Y-104573342D01*
X93705514Y-104478104D01*
X93705514Y-104287628D01*
X93657895Y-104192390D01*
X93610276Y-104144771D01*
X93515038Y-104097152D01*
%TO.C,C5*%
X105813333Y-113746342D02*
X105765714Y-113793961D01*
X105622857Y-113841580D01*
X105527619Y-113841580D01*
X105384761Y-113793961D01*
X105289523Y-113698723D01*
X105241904Y-113603485D01*
X105194285Y-113413009D01*
X105194285Y-113270152D01*
X105241904Y-113079676D01*
X105289523Y-112984438D01*
X105384761Y-112889200D01*
X105527619Y-112841580D01*
X105622857Y-112841580D01*
X105765714Y-112889200D01*
X105813333Y-112936819D01*
X106718095Y-112841580D02*
X106241904Y-112841580D01*
X106194285Y-113317771D01*
X106241904Y-113270152D01*
X106337142Y-113222533D01*
X106575238Y-113222533D01*
X106670476Y-113270152D01*
X106718095Y-113317771D01*
X106765714Y-113413009D01*
X106765714Y-113651104D01*
X106718095Y-113746342D01*
X106670476Y-113793961D01*
X106575238Y-113841580D01*
X106337142Y-113841580D01*
X106241904Y-113793961D01*
X106194285Y-113746342D01*
%TO.C,C2*%
X86457283Y-121342742D02*
X86409664Y-121390361D01*
X86266807Y-121437980D01*
X86171569Y-121437980D01*
X86028711Y-121390361D01*
X85933473Y-121295123D01*
X85885854Y-121199885D01*
X85838235Y-121009409D01*
X85838235Y-120866552D01*
X85885854Y-120676076D01*
X85933473Y-120580838D01*
X86028711Y-120485600D01*
X86171569Y-120437980D01*
X86266807Y-120437980D01*
X86409664Y-120485600D01*
X86457283Y-120533219D01*
X86838235Y-120533219D02*
X86885854Y-120485600D01*
X86981092Y-120437980D01*
X87219188Y-120437980D01*
X87314426Y-120485600D01*
X87362045Y-120533219D01*
X87409664Y-120628457D01*
X87409664Y-120723695D01*
X87362045Y-120866552D01*
X86790616Y-121437980D01*
X87409664Y-121437980D01*
%TO.C,C13*%
X81977142Y-111317142D02*
X81929523Y-111364761D01*
X81786666Y-111412380D01*
X81691428Y-111412380D01*
X81548571Y-111364761D01*
X81453333Y-111269523D01*
X81405714Y-111174285D01*
X81358095Y-110983809D01*
X81358095Y-110840952D01*
X81405714Y-110650476D01*
X81453333Y-110555238D01*
X81548571Y-110460000D01*
X81691428Y-110412380D01*
X81786666Y-110412380D01*
X81929523Y-110460000D01*
X81977142Y-110507619D01*
X82929523Y-111412380D02*
X82358095Y-111412380D01*
X82643809Y-111412380D02*
X82643809Y-110412380D01*
X82548571Y-110555238D01*
X82453333Y-110650476D01*
X82358095Y-110698095D01*
X83262857Y-110412380D02*
X83881904Y-110412380D01*
X83548571Y-110793333D01*
X83691428Y-110793333D01*
X83786666Y-110840952D01*
X83834285Y-110888571D01*
X83881904Y-110983809D01*
X83881904Y-111221904D01*
X83834285Y-111317142D01*
X83786666Y-111364761D01*
X83691428Y-111412380D01*
X83405714Y-111412380D01*
X83310476Y-111364761D01*
X83262857Y-111317142D01*
%TO.C,R7*%
X124720380Y-115130666D02*
X124244190Y-115464000D01*
X124720380Y-115702095D02*
X123720380Y-115702095D01*
X123720380Y-115321142D01*
X123768000Y-115225904D01*
X123815619Y-115178285D01*
X123910857Y-115130666D01*
X124053714Y-115130666D01*
X124148952Y-115178285D01*
X124196571Y-115225904D01*
X124244190Y-115321142D01*
X124244190Y-115702095D01*
X123720380Y-114797333D02*
X123720380Y-114130666D01*
X124720380Y-114559238D01*
%TO.C,C17*%
X87017142Y-99947142D02*
X86969523Y-99994761D01*
X86826666Y-100042380D01*
X86731428Y-100042380D01*
X86588571Y-99994761D01*
X86493333Y-99899523D01*
X86445714Y-99804285D01*
X86398095Y-99613809D01*
X86398095Y-99470952D01*
X86445714Y-99280476D01*
X86493333Y-99185238D01*
X86588571Y-99090000D01*
X86731428Y-99042380D01*
X86826666Y-99042380D01*
X86969523Y-99090000D01*
X87017142Y-99137619D01*
X87969523Y-100042380D02*
X87398095Y-100042380D01*
X87683809Y-100042380D02*
X87683809Y-99042380D01*
X87588571Y-99185238D01*
X87493333Y-99280476D01*
X87398095Y-99328095D01*
X88302857Y-99042380D02*
X88969523Y-99042380D01*
X88540952Y-100042380D01*
%TO.C,C8*%
X75333333Y-109987142D02*
X75285714Y-110034761D01*
X75142857Y-110082380D01*
X75047619Y-110082380D01*
X74904761Y-110034761D01*
X74809523Y-109939523D01*
X74761904Y-109844285D01*
X74714285Y-109653809D01*
X74714285Y-109510952D01*
X74761904Y-109320476D01*
X74809523Y-109225238D01*
X74904761Y-109130000D01*
X75047619Y-109082380D01*
X75142857Y-109082380D01*
X75285714Y-109130000D01*
X75333333Y-109177619D01*
X75904761Y-109510952D02*
X75809523Y-109463333D01*
X75761904Y-109415714D01*
X75714285Y-109320476D01*
X75714285Y-109272857D01*
X75761904Y-109177619D01*
X75809523Y-109130000D01*
X75904761Y-109082380D01*
X76095238Y-109082380D01*
X76190476Y-109130000D01*
X76238095Y-109177619D01*
X76285714Y-109272857D01*
X76285714Y-109320476D01*
X76238095Y-109415714D01*
X76190476Y-109463333D01*
X76095238Y-109510952D01*
X75904761Y-109510952D01*
X75809523Y-109558571D01*
X75761904Y-109606190D01*
X75714285Y-109701428D01*
X75714285Y-109891904D01*
X75761904Y-109987142D01*
X75809523Y-110034761D01*
X75904761Y-110082380D01*
X76095238Y-110082380D01*
X76190476Y-110034761D01*
X76238095Y-109987142D01*
X76285714Y-109891904D01*
X76285714Y-109701428D01*
X76238095Y-109606190D01*
X76190476Y-109558571D01*
X76095238Y-109510952D01*
%TO.C,C3*%
X127419142Y-115130666D02*
X127466761Y-115178285D01*
X127514380Y-115321142D01*
X127514380Y-115416380D01*
X127466761Y-115559238D01*
X127371523Y-115654476D01*
X127276285Y-115702095D01*
X127085809Y-115749714D01*
X126942952Y-115749714D01*
X126752476Y-115702095D01*
X126657238Y-115654476D01*
X126562000Y-115559238D01*
X126514380Y-115416380D01*
X126514380Y-115321142D01*
X126562000Y-115178285D01*
X126609619Y-115130666D01*
X126514380Y-114797333D02*
X126514380Y-114178285D01*
X126895333Y-114511619D01*
X126895333Y-114368761D01*
X126942952Y-114273523D01*
X126990571Y-114225904D01*
X127085809Y-114178285D01*
X127323904Y-114178285D01*
X127419142Y-114225904D01*
X127466761Y-114273523D01*
X127514380Y-114368761D01*
X127514380Y-114654476D01*
X127466761Y-114749714D01*
X127419142Y-114797333D01*
%TO.C,C4*%
X100682533Y-113746342D02*
X100634914Y-113793961D01*
X100492057Y-113841580D01*
X100396819Y-113841580D01*
X100253961Y-113793961D01*
X100158723Y-113698723D01*
X100111104Y-113603485D01*
X100063485Y-113413009D01*
X100063485Y-113270152D01*
X100111104Y-113079676D01*
X100158723Y-112984438D01*
X100253961Y-112889200D01*
X100396819Y-112841580D01*
X100492057Y-112841580D01*
X100634914Y-112889200D01*
X100682533Y-112936819D01*
X101539676Y-113174914D02*
X101539676Y-113841580D01*
X101301580Y-112793961D02*
X101063485Y-113508247D01*
X101682533Y-113508247D01*
%TO.C,C19*%
X106607142Y-105161142D02*
X106559523Y-105208761D01*
X106416666Y-105256380D01*
X106321428Y-105256380D01*
X106178571Y-105208761D01*
X106083333Y-105113523D01*
X106035714Y-105018285D01*
X105988095Y-104827809D01*
X105988095Y-104684952D01*
X106035714Y-104494476D01*
X106083333Y-104399238D01*
X106178571Y-104304000D01*
X106321428Y-104256380D01*
X106416666Y-104256380D01*
X106559523Y-104304000D01*
X106607142Y-104351619D01*
X107559523Y-105256380D02*
X106988095Y-105256380D01*
X107273809Y-105256380D02*
X107273809Y-104256380D01*
X107178571Y-104399238D01*
X107083333Y-104494476D01*
X106988095Y-104542095D01*
X108035714Y-105256380D02*
X108226190Y-105256380D01*
X108321428Y-105208761D01*
X108369047Y-105161142D01*
X108464285Y-105018285D01*
X108511904Y-104827809D01*
X108511904Y-104446857D01*
X108464285Y-104351619D01*
X108416666Y-104304000D01*
X108321428Y-104256380D01*
X108130952Y-104256380D01*
X108035714Y-104304000D01*
X107988095Y-104351619D01*
X107940476Y-104446857D01*
X107940476Y-104684952D01*
X107988095Y-104780190D01*
X108035714Y-104827809D01*
X108130952Y-104875428D01*
X108321428Y-104875428D01*
X108416666Y-104827809D01*
X108464285Y-104780190D01*
X108511904Y-104684952D01*
%TO.C,C14*%
X77729142Y-109002857D02*
X77776761Y-109050476D01*
X77824380Y-109193333D01*
X77824380Y-109288571D01*
X77776761Y-109431428D01*
X77681523Y-109526666D01*
X77586285Y-109574285D01*
X77395809Y-109621904D01*
X77252952Y-109621904D01*
X77062476Y-109574285D01*
X76967238Y-109526666D01*
X76872000Y-109431428D01*
X76824380Y-109288571D01*
X76824380Y-109193333D01*
X76872000Y-109050476D01*
X76919619Y-109002857D01*
X77824380Y-108050476D02*
X77824380Y-108621904D01*
X77824380Y-108336190D02*
X76824380Y-108336190D01*
X76967238Y-108431428D01*
X77062476Y-108526666D01*
X77110095Y-108621904D01*
X77157714Y-107193333D02*
X77824380Y-107193333D01*
X76776761Y-107431428D02*
X77491047Y-107669523D01*
X77491047Y-107050476D01*
%TO.C,R14*%
X111687142Y-104312980D02*
X111353809Y-103836790D01*
X111115714Y-104312980D02*
X111115714Y-103312980D01*
X111496666Y-103312980D01*
X111591904Y-103360600D01*
X111639523Y-103408219D01*
X111687142Y-103503457D01*
X111687142Y-103646314D01*
X111639523Y-103741552D01*
X111591904Y-103789171D01*
X111496666Y-103836790D01*
X111115714Y-103836790D01*
X112639523Y-104312980D02*
X112068095Y-104312980D01*
X112353809Y-104312980D02*
X112353809Y-103312980D01*
X112258571Y-103455838D01*
X112163333Y-103551076D01*
X112068095Y-103598695D01*
X113496666Y-103646314D02*
X113496666Y-104312980D01*
X113258571Y-103265361D02*
X113020476Y-103979647D01*
X113639523Y-103979647D01*
%TO.C,R2*%
X101617380Y-111825066D02*
X101141190Y-112158400D01*
X101617380Y-112396495D02*
X100617380Y-112396495D01*
X100617380Y-112015542D01*
X100665000Y-111920304D01*
X100712619Y-111872685D01*
X100807857Y-111825066D01*
X100950714Y-111825066D01*
X101045952Y-111872685D01*
X101093571Y-111920304D01*
X101141190Y-112015542D01*
X101141190Y-112396495D01*
X100712619Y-111444114D02*
X100665000Y-111396495D01*
X100617380Y-111301257D01*
X100617380Y-111063161D01*
X100665000Y-110967923D01*
X100712619Y-110920304D01*
X100807857Y-110872685D01*
X100903095Y-110872685D01*
X101045952Y-110920304D01*
X101617380Y-111491733D01*
X101617380Y-110872685D01*
%TO.C,C20*%
X106607142Y-108717142D02*
X106559523Y-108764761D01*
X106416666Y-108812380D01*
X106321428Y-108812380D01*
X106178571Y-108764761D01*
X106083333Y-108669523D01*
X106035714Y-108574285D01*
X105988095Y-108383809D01*
X105988095Y-108240952D01*
X106035714Y-108050476D01*
X106083333Y-107955238D01*
X106178571Y-107860000D01*
X106321428Y-107812380D01*
X106416666Y-107812380D01*
X106559523Y-107860000D01*
X106607142Y-107907619D01*
X106988095Y-107907619D02*
X107035714Y-107860000D01*
X107130952Y-107812380D01*
X107369047Y-107812380D01*
X107464285Y-107860000D01*
X107511904Y-107907619D01*
X107559523Y-108002857D01*
X107559523Y-108098095D01*
X107511904Y-108240952D01*
X106940476Y-108812380D01*
X107559523Y-108812380D01*
X108178571Y-107812380D02*
X108273809Y-107812380D01*
X108369047Y-107860000D01*
X108416666Y-107907619D01*
X108464285Y-108002857D01*
X108511904Y-108193333D01*
X108511904Y-108431428D01*
X108464285Y-108621904D01*
X108416666Y-108717142D01*
X108369047Y-108764761D01*
X108273809Y-108812380D01*
X108178571Y-108812380D01*
X108083333Y-108764761D01*
X108035714Y-108717142D01*
X107988095Y-108621904D01*
X107940476Y-108431428D01*
X107940476Y-108193333D01*
X107988095Y-108002857D01*
X108035714Y-107907619D01*
X108083333Y-107860000D01*
X108178571Y-107812380D01*
%TO.C,R13*%
X130816380Y-94301657D02*
X130340190Y-94634990D01*
X130816380Y-94873085D02*
X129816380Y-94873085D01*
X129816380Y-94492133D01*
X129864000Y-94396895D01*
X129911619Y-94349276D01*
X130006857Y-94301657D01*
X130149714Y-94301657D01*
X130244952Y-94349276D01*
X130292571Y-94396895D01*
X130340190Y-94492133D01*
X130340190Y-94873085D01*
X130816380Y-93349276D02*
X130816380Y-93920704D01*
X130816380Y-93634990D02*
X129816380Y-93634990D01*
X129959238Y-93730228D01*
X130054476Y-93825466D01*
X130102095Y-93920704D01*
X129816380Y-93015942D02*
X129816380Y-92396895D01*
X130197333Y-92730228D01*
X130197333Y-92587371D01*
X130244952Y-92492133D01*
X130292571Y-92444514D01*
X130387809Y-92396895D01*
X130625904Y-92396895D01*
X130721142Y-92444514D01*
X130768761Y-92492133D01*
X130816380Y-92587371D01*
X130816380Y-92873085D01*
X130768761Y-92968323D01*
X130721142Y-93015942D01*
%TO.C,U1*%
X100149180Y-116894304D02*
X100958704Y-116894304D01*
X101053942Y-116846685D01*
X101101561Y-116799066D01*
X101149180Y-116703828D01*
X101149180Y-116513352D01*
X101101561Y-116418114D01*
X101053942Y-116370495D01*
X100958704Y-116322876D01*
X100149180Y-116322876D01*
X101149180Y-115322876D02*
X101149180Y-115894304D01*
X101149180Y-115608590D02*
X100149180Y-115608590D01*
X100292038Y-115703828D01*
X100387276Y-115799066D01*
X100434895Y-115894304D01*
%TO.C,R11*%
X127222180Y-94301657D02*
X126745990Y-94634990D01*
X127222180Y-94873085D02*
X126222180Y-94873085D01*
X126222180Y-94492133D01*
X126269800Y-94396895D01*
X126317419Y-94349276D01*
X126412657Y-94301657D01*
X126555514Y-94301657D01*
X126650752Y-94349276D01*
X126698371Y-94396895D01*
X126745990Y-94492133D01*
X126745990Y-94873085D01*
X127222180Y-93349276D02*
X127222180Y-93920704D01*
X127222180Y-93634990D02*
X126222180Y-93634990D01*
X126365038Y-93730228D01*
X126460276Y-93825466D01*
X126507895Y-93920704D01*
X127222180Y-92396895D02*
X127222180Y-92968323D01*
X127222180Y-92682609D02*
X126222180Y-92682609D01*
X126365038Y-92777847D01*
X126460276Y-92873085D01*
X126507895Y-92968323D01*
%TO.C,C16*%
X83537142Y-99947142D02*
X83489523Y-99994761D01*
X83346666Y-100042380D01*
X83251428Y-100042380D01*
X83108571Y-99994761D01*
X83013333Y-99899523D01*
X82965714Y-99804285D01*
X82918095Y-99613809D01*
X82918095Y-99470952D01*
X82965714Y-99280476D01*
X83013333Y-99185238D01*
X83108571Y-99090000D01*
X83251428Y-99042380D01*
X83346666Y-99042380D01*
X83489523Y-99090000D01*
X83537142Y-99137619D01*
X84489523Y-100042380D02*
X83918095Y-100042380D01*
X84203809Y-100042380D02*
X84203809Y-99042380D01*
X84108571Y-99185238D01*
X84013333Y-99280476D01*
X83918095Y-99328095D01*
X85346666Y-99042380D02*
X85156190Y-99042380D01*
X85060952Y-99090000D01*
X85013333Y-99137619D01*
X84918095Y-99280476D01*
X84870476Y-99470952D01*
X84870476Y-99851904D01*
X84918095Y-99947142D01*
X84965714Y-99994761D01*
X85060952Y-100042380D01*
X85251428Y-100042380D01*
X85346666Y-99994761D01*
X85394285Y-99947142D01*
X85441904Y-99851904D01*
X85441904Y-99613809D01*
X85394285Y-99518571D01*
X85346666Y-99470952D01*
X85251428Y-99423333D01*
X85060952Y-99423333D01*
X84965714Y-99470952D01*
X84918095Y-99518571D01*
X84870476Y-99613809D01*
%TO.C,C15*%
X131499142Y-70617142D02*
X131451523Y-70664761D01*
X131308666Y-70712380D01*
X131213428Y-70712380D01*
X131070571Y-70664761D01*
X130975333Y-70569523D01*
X130927714Y-70474285D01*
X130880095Y-70283809D01*
X130880095Y-70140952D01*
X130927714Y-69950476D01*
X130975333Y-69855238D01*
X131070571Y-69760000D01*
X131213428Y-69712380D01*
X131308666Y-69712380D01*
X131451523Y-69760000D01*
X131499142Y-69807619D01*
X132451523Y-70712380D02*
X131880095Y-70712380D01*
X132165809Y-70712380D02*
X132165809Y-69712380D01*
X132070571Y-69855238D01*
X131975333Y-69950476D01*
X131880095Y-69998095D01*
X133356285Y-69712380D02*
X132880095Y-69712380D01*
X132832476Y-70188571D01*
X132880095Y-70140952D01*
X132975333Y-70093333D01*
X133213428Y-70093333D01*
X133308666Y-70140952D01*
X133356285Y-70188571D01*
X133403904Y-70283809D01*
X133403904Y-70521904D01*
X133356285Y-70617142D01*
X133308666Y-70664761D01*
X133213428Y-70712380D01*
X132975333Y-70712380D01*
X132880095Y-70664761D01*
X132832476Y-70617142D01*
%TO.C,R3*%
X92046533Y-81922380D02*
X91713200Y-81446190D01*
X91475104Y-81922380D02*
X91475104Y-80922380D01*
X91856057Y-80922380D01*
X91951295Y-80970000D01*
X91998914Y-81017619D01*
X92046533Y-81112857D01*
X92046533Y-81255714D01*
X91998914Y-81350952D01*
X91951295Y-81398571D01*
X91856057Y-81446190D01*
X91475104Y-81446190D01*
X92379866Y-80922380D02*
X92998914Y-80922380D01*
X92665580Y-81303333D01*
X92808438Y-81303333D01*
X92903676Y-81350952D01*
X92951295Y-81398571D01*
X92998914Y-81493809D01*
X92998914Y-81731904D01*
X92951295Y-81827142D01*
X92903676Y-81874761D01*
X92808438Y-81922380D01*
X92522723Y-81922380D01*
X92427485Y-81874761D01*
X92379866Y-81827142D01*
%TO.C,C11*%
X122339142Y-105913657D02*
X122386761Y-105961276D01*
X122434380Y-106104133D01*
X122434380Y-106199371D01*
X122386761Y-106342228D01*
X122291523Y-106437466D01*
X122196285Y-106485085D01*
X122005809Y-106532704D01*
X121862952Y-106532704D01*
X121672476Y-106485085D01*
X121577238Y-106437466D01*
X121482000Y-106342228D01*
X121434380Y-106199371D01*
X121434380Y-106104133D01*
X121482000Y-105961276D01*
X121529619Y-105913657D01*
X122434380Y-104961276D02*
X122434380Y-105532704D01*
X122434380Y-105246990D02*
X121434380Y-105246990D01*
X121577238Y-105342228D01*
X121672476Y-105437466D01*
X121720095Y-105532704D01*
X122434380Y-104008895D02*
X122434380Y-104580323D01*
X122434380Y-104294609D02*
X121434380Y-104294609D01*
X121577238Y-104389847D01*
X121672476Y-104485085D01*
X121720095Y-104580323D01*
%TO.C,C1*%
X86190883Y-126227142D02*
X86143264Y-126274761D01*
X86000407Y-126322380D01*
X85905169Y-126322380D01*
X85762311Y-126274761D01*
X85667073Y-126179523D01*
X85619454Y-126084285D01*
X85571835Y-125893809D01*
X85571835Y-125750952D01*
X85619454Y-125560476D01*
X85667073Y-125465238D01*
X85762311Y-125370000D01*
X85905169Y-125322380D01*
X86000407Y-125322380D01*
X86143264Y-125370000D01*
X86190883Y-125417619D01*
X87143264Y-126322380D02*
X86571835Y-126322380D01*
X86857550Y-126322380D02*
X86857550Y-125322380D01*
X86762311Y-125465238D01*
X86667073Y-125560476D01*
X86571835Y-125608095D01*
%TO.C,C7*%
X122567142Y-108396666D02*
X122614761Y-108444285D01*
X122662380Y-108587142D01*
X122662380Y-108682380D01*
X122614761Y-108825238D01*
X122519523Y-108920476D01*
X122424285Y-108968095D01*
X122233809Y-109015714D01*
X122090952Y-109015714D01*
X121900476Y-108968095D01*
X121805238Y-108920476D01*
X121710000Y-108825238D01*
X121662380Y-108682380D01*
X121662380Y-108587142D01*
X121710000Y-108444285D01*
X121757619Y-108396666D01*
X121662380Y-108063333D02*
X121662380Y-107396666D01*
X122662380Y-107825238D01*
%TO.C,C8*%
X125895142Y-115130666D02*
X125942761Y-115178285D01*
X125990380Y-115321142D01*
X125990380Y-115416380D01*
X125942761Y-115559238D01*
X125847523Y-115654476D01*
X125752285Y-115702095D01*
X125561809Y-115749714D01*
X125418952Y-115749714D01*
X125228476Y-115702095D01*
X125133238Y-115654476D01*
X125038000Y-115559238D01*
X124990380Y-115416380D01*
X124990380Y-115321142D01*
X125038000Y-115178285D01*
X125085619Y-115130666D01*
X125418952Y-114559238D02*
X125371333Y-114654476D01*
X125323714Y-114702095D01*
X125228476Y-114749714D01*
X125180857Y-114749714D01*
X125085619Y-114702095D01*
X125038000Y-114654476D01*
X124990380Y-114559238D01*
X124990380Y-114368761D01*
X125038000Y-114273523D01*
X125085619Y-114225904D01*
X125180857Y-114178285D01*
X125228476Y-114178285D01*
X125323714Y-114225904D01*
X125371333Y-114273523D01*
X125418952Y-114368761D01*
X125418952Y-114559238D01*
X125466571Y-114654476D01*
X125514190Y-114702095D01*
X125609428Y-114749714D01*
X125799904Y-114749714D01*
X125895142Y-114702095D01*
X125942761Y-114654476D01*
X125990380Y-114559238D01*
X125990380Y-114368761D01*
X125942761Y-114273523D01*
X125895142Y-114225904D01*
X125799904Y-114178285D01*
X125609428Y-114178285D01*
X125514190Y-114225904D01*
X125466571Y-114273523D01*
X125418952Y-114368761D01*
%TO.C,U3*%
X73936380Y-117321904D02*
X74745904Y-117321904D01*
X74841142Y-117274285D01*
X74888761Y-117226666D01*
X74936380Y-117131428D01*
X74936380Y-116940952D01*
X74888761Y-116845714D01*
X74841142Y-116798095D01*
X74745904Y-116750476D01*
X73936380Y-116750476D01*
X73936380Y-116369523D02*
X73936380Y-115750476D01*
X74317333Y-116083809D01*
X74317333Y-115940952D01*
X74364952Y-115845714D01*
X74412571Y-115798095D01*
X74507809Y-115750476D01*
X74745904Y-115750476D01*
X74841142Y-115798095D01*
X74888761Y-115845714D01*
X74936380Y-115940952D01*
X74936380Y-116226666D01*
X74888761Y-116321904D01*
X74841142Y-116369523D01*
%TO.C,R10*%
X111687142Y-103097380D02*
X111353809Y-102621190D01*
X111115714Y-103097380D02*
X111115714Y-102097380D01*
X111496666Y-102097380D01*
X111591904Y-102145000D01*
X111639523Y-102192619D01*
X111687142Y-102287857D01*
X111687142Y-102430714D01*
X111639523Y-102525952D01*
X111591904Y-102573571D01*
X111496666Y-102621190D01*
X111115714Y-102621190D01*
X112639523Y-103097380D02*
X112068095Y-103097380D01*
X112353809Y-103097380D02*
X112353809Y-102097380D01*
X112258571Y-102240238D01*
X112163333Y-102335476D01*
X112068095Y-102383095D01*
X113258571Y-102097380D02*
X113353809Y-102097380D01*
X113449047Y-102145000D01*
X113496666Y-102192619D01*
X113544285Y-102287857D01*
X113591904Y-102478333D01*
X113591904Y-102716428D01*
X113544285Y-102906904D01*
X113496666Y-103002142D01*
X113449047Y-103049761D01*
X113353809Y-103097380D01*
X113258571Y-103097380D01*
X113163333Y-103049761D01*
X113115714Y-103002142D01*
X113068095Y-102906904D01*
X113020476Y-102716428D01*
X113020476Y-102478333D01*
X113068095Y-102287857D01*
X113115714Y-102192619D01*
X113163333Y-102145000D01*
X113258571Y-102097380D01*
%TO.C,Q2*%
X89763619Y-103121238D02*
X89716000Y-103216476D01*
X89620761Y-103311714D01*
X89477904Y-103454571D01*
X89430285Y-103549809D01*
X89430285Y-103645047D01*
X89668380Y-103597428D02*
X89620761Y-103692666D01*
X89525523Y-103787904D01*
X89335047Y-103835523D01*
X89001714Y-103835523D01*
X88811238Y-103787904D01*
X88716000Y-103692666D01*
X88668380Y-103597428D01*
X88668380Y-103406952D01*
X88716000Y-103311714D01*
X88811238Y-103216476D01*
X89001714Y-103168857D01*
X89335047Y-103168857D01*
X89525523Y-103216476D01*
X89620761Y-103311714D01*
X89668380Y-103406952D01*
X89668380Y-103597428D01*
X88763619Y-102787904D02*
X88716000Y-102740285D01*
X88668380Y-102645047D01*
X88668380Y-102406952D01*
X88716000Y-102311714D01*
X88763619Y-102264095D01*
X88858857Y-102216476D01*
X88954095Y-102216476D01*
X89096952Y-102264095D01*
X89668380Y-102835523D01*
X89668380Y-102216476D01*
%TO.C,U2*%
X127316095Y-106052380D02*
X127316095Y-106861904D01*
X127363714Y-106957142D01*
X127411333Y-107004761D01*
X127506571Y-107052380D01*
X127697047Y-107052380D01*
X127792285Y-107004761D01*
X127839904Y-106957142D01*
X127887523Y-106861904D01*
X127887523Y-106052380D01*
X128316095Y-106147619D02*
X128363714Y-106100000D01*
X128458952Y-106052380D01*
X128697047Y-106052380D01*
X128792285Y-106100000D01*
X128839904Y-106147619D01*
X128887523Y-106242857D01*
X128887523Y-106338095D01*
X128839904Y-106480952D01*
X128268476Y-107052380D01*
X128887523Y-107052380D01*
%TO.C,SW2*%
X96941666Y-88179761D02*
X97084523Y-88227380D01*
X97322619Y-88227380D01*
X97417857Y-88179761D01*
X97465476Y-88132142D01*
X97513095Y-88036904D01*
X97513095Y-87941666D01*
X97465476Y-87846428D01*
X97417857Y-87798809D01*
X97322619Y-87751190D01*
X97132142Y-87703571D01*
X97036904Y-87655952D01*
X96989285Y-87608333D01*
X96941666Y-87513095D01*
X96941666Y-87417857D01*
X96989285Y-87322619D01*
X97036904Y-87275000D01*
X97132142Y-87227380D01*
X97370238Y-87227380D01*
X97513095Y-87275000D01*
X97846428Y-87227380D02*
X98084523Y-88227380D01*
X98275000Y-87513095D01*
X98465476Y-88227380D01*
X98703571Y-87227380D01*
X99036904Y-87322619D02*
X99084523Y-87275000D01*
X99179761Y-87227380D01*
X99417857Y-87227380D01*
X99513095Y-87275000D01*
X99560714Y-87322619D01*
X99608333Y-87417857D01*
X99608333Y-87513095D01*
X99560714Y-87655952D01*
X98989285Y-88227380D01*
X99608333Y-88227380D01*
%TO.C,C12*%
X125133142Y-102652857D02*
X125180761Y-102700476D01*
X125228380Y-102843333D01*
X125228380Y-102938571D01*
X125180761Y-103081428D01*
X125085523Y-103176666D01*
X124990285Y-103224285D01*
X124799809Y-103271904D01*
X124656952Y-103271904D01*
X124466476Y-103224285D01*
X124371238Y-103176666D01*
X124276000Y-103081428D01*
X124228380Y-102938571D01*
X124228380Y-102843333D01*
X124276000Y-102700476D01*
X124323619Y-102652857D01*
X125228380Y-101700476D02*
X125228380Y-102271904D01*
X125228380Y-101986190D02*
X124228380Y-101986190D01*
X124371238Y-102081428D01*
X124466476Y-102176666D01*
X124514095Y-102271904D01*
X124323619Y-101319523D02*
X124276000Y-101271904D01*
X124228380Y-101176666D01*
X124228380Y-100938571D01*
X124276000Y-100843333D01*
X124323619Y-100795714D01*
X124418857Y-100748095D01*
X124514095Y-100748095D01*
X124656952Y-100795714D01*
X125228380Y-101367142D01*
X125228380Y-100748095D01*
%TO.C,R5*%
X129038380Y-115130666D02*
X128562190Y-115464000D01*
X129038380Y-115702095D02*
X128038380Y-115702095D01*
X128038380Y-115321142D01*
X128086000Y-115225904D01*
X128133619Y-115178285D01*
X128228857Y-115130666D01*
X128371714Y-115130666D01*
X128466952Y-115178285D01*
X128514571Y-115225904D01*
X128562190Y-115321142D01*
X128562190Y-115702095D01*
X128038380Y-114225904D02*
X128038380Y-114702095D01*
X128514571Y-114749714D01*
X128466952Y-114702095D01*
X128419333Y-114606857D01*
X128419333Y-114368761D01*
X128466952Y-114273523D01*
X128514571Y-114225904D01*
X128609809Y-114178285D01*
X128847904Y-114178285D01*
X128943142Y-114225904D01*
X128990761Y-114273523D01*
X129038380Y-114368761D01*
X129038380Y-114606857D01*
X128990761Y-114702095D01*
X128943142Y-114749714D01*
%TO.C,C9*%
X131737142Y-115384666D02*
X131784761Y-115432285D01*
X131832380Y-115575142D01*
X131832380Y-115670380D01*
X131784761Y-115813238D01*
X131689523Y-115908476D01*
X131594285Y-115956095D01*
X131403809Y-116003714D01*
X131260952Y-116003714D01*
X131070476Y-115956095D01*
X130975238Y-115908476D01*
X130880000Y-115813238D01*
X130832380Y-115670380D01*
X130832380Y-115575142D01*
X130880000Y-115432285D01*
X130927619Y-115384666D01*
X131832380Y-114908476D02*
X131832380Y-114718000D01*
X131784761Y-114622761D01*
X131737142Y-114575142D01*
X131594285Y-114479904D01*
X131403809Y-114432285D01*
X131022857Y-114432285D01*
X130927619Y-114479904D01*
X130880000Y-114527523D01*
X130832380Y-114622761D01*
X130832380Y-114813238D01*
X130880000Y-114908476D01*
X130927619Y-114956095D01*
X131022857Y-115003714D01*
X131260952Y-115003714D01*
X131356190Y-114956095D01*
X131403809Y-114908476D01*
X131451428Y-114813238D01*
X131451428Y-114622761D01*
X131403809Y-114527523D01*
X131356190Y-114479904D01*
X131260952Y-114432285D01*
%TO.C,U4*%
X115572895Y-71145980D02*
X115572895Y-71955504D01*
X115620514Y-72050742D01*
X115668133Y-72098361D01*
X115763371Y-72145980D01*
X115953847Y-72145980D01*
X116049085Y-72098361D01*
X116096704Y-72050742D01*
X116144323Y-71955504D01*
X116144323Y-71145980D01*
X117049085Y-71479314D02*
X117049085Y-72145980D01*
X116810990Y-71098361D02*
X116572895Y-71812647D01*
X117191942Y-71812647D01*
%TO.C,R12*%
X111574342Y-107028580D02*
X111241009Y-106552390D01*
X111002914Y-107028580D02*
X111002914Y-106028580D01*
X111383866Y-106028580D01*
X111479104Y-106076200D01*
X111526723Y-106123819D01*
X111574342Y-106219057D01*
X111574342Y-106361914D01*
X111526723Y-106457152D01*
X111479104Y-106504771D01*
X111383866Y-106552390D01*
X111002914Y-106552390D01*
X112526723Y-107028580D02*
X111955295Y-107028580D01*
X112241009Y-107028580D02*
X112241009Y-106028580D01*
X112145771Y-106171438D01*
X112050533Y-106266676D01*
X111955295Y-106314295D01*
X112907676Y-106123819D02*
X112955295Y-106076200D01*
X113050533Y-106028580D01*
X113288628Y-106028580D01*
X113383866Y-106076200D01*
X113431485Y-106123819D01*
X113479104Y-106219057D01*
X113479104Y-106314295D01*
X113431485Y-106457152D01*
X112860057Y-107028580D01*
X113479104Y-107028580D01*
%TO.C,R6*%
X130703333Y-107075380D02*
X130370000Y-106599190D01*
X130131904Y-107075380D02*
X130131904Y-106075380D01*
X130512857Y-106075380D01*
X130608095Y-106123000D01*
X130655714Y-106170619D01*
X130703333Y-106265857D01*
X130703333Y-106408714D01*
X130655714Y-106503952D01*
X130608095Y-106551571D01*
X130512857Y-106599190D01*
X130131904Y-106599190D01*
X131560476Y-106075380D02*
X131370000Y-106075380D01*
X131274761Y-106123000D01*
X131227142Y-106170619D01*
X131131904Y-106313476D01*
X131084285Y-106503952D01*
X131084285Y-106884904D01*
X131131904Y-106980142D01*
X131179523Y-107027761D01*
X131274761Y-107075380D01*
X131465238Y-107075380D01*
X131560476Y-107027761D01*
X131608095Y-106980142D01*
X131655714Y-106884904D01*
X131655714Y-106646809D01*
X131608095Y-106551571D01*
X131560476Y-106503952D01*
X131465238Y-106456333D01*
X131274761Y-106456333D01*
X131179523Y-106503952D01*
X131131904Y-106551571D01*
X131084285Y-106646809D01*
%TO.C,Q1*%
X82257619Y-103395238D02*
X82210000Y-103490476D01*
X82114761Y-103585714D01*
X81971904Y-103728571D01*
X81924285Y-103823809D01*
X81924285Y-103919047D01*
X82162380Y-103871428D02*
X82114761Y-103966666D01*
X82019523Y-104061904D01*
X81829047Y-104109523D01*
X81495714Y-104109523D01*
X81305238Y-104061904D01*
X81210000Y-103966666D01*
X81162380Y-103871428D01*
X81162380Y-103680952D01*
X81210000Y-103585714D01*
X81305238Y-103490476D01*
X81495714Y-103442857D01*
X81829047Y-103442857D01*
X82019523Y-103490476D01*
X82114761Y-103585714D01*
X82162380Y-103680952D01*
X82162380Y-103871428D01*
X82162380Y-102490476D02*
X82162380Y-103061904D01*
X82162380Y-102776190D02*
X81162380Y-102776190D01*
X81305238Y-102871428D01*
X81400476Y-102966666D01*
X81448095Y-103061904D01*
%TO.C,R1*%
X106229180Y-111828666D02*
X105752990Y-112162000D01*
X106229180Y-112400095D02*
X105229180Y-112400095D01*
X105229180Y-112019142D01*
X105276800Y-111923904D01*
X105324419Y-111876285D01*
X105419657Y-111828666D01*
X105562514Y-111828666D01*
X105657752Y-111876285D01*
X105705371Y-111923904D01*
X105752990Y-112019142D01*
X105752990Y-112400095D01*
X106229180Y-110876285D02*
X106229180Y-111447714D01*
X106229180Y-111162000D02*
X105229180Y-111162000D01*
X105372038Y-111257238D01*
X105467276Y-111352476D01*
X105514895Y-111447714D01*
%TO.C,R4*%
X92046533Y-85986380D02*
X91713200Y-85510190D01*
X91475104Y-85986380D02*
X91475104Y-84986380D01*
X91856057Y-84986380D01*
X91951295Y-85034000D01*
X91998914Y-85081619D01*
X92046533Y-85176857D01*
X92046533Y-85319714D01*
X91998914Y-85414952D01*
X91951295Y-85462571D01*
X91856057Y-85510190D01*
X91475104Y-85510190D01*
X92903676Y-85319714D02*
X92903676Y-85986380D01*
X92665580Y-84938761D02*
X92427485Y-85653047D01*
X93046533Y-85653047D01*
%TO.C,SW1*%
X85466666Y-87929761D02*
X85609523Y-87977380D01*
X85847619Y-87977380D01*
X85942857Y-87929761D01*
X85990476Y-87882142D01*
X86038095Y-87786904D01*
X86038095Y-87691666D01*
X85990476Y-87596428D01*
X85942857Y-87548809D01*
X85847619Y-87501190D01*
X85657142Y-87453571D01*
X85561904Y-87405952D01*
X85514285Y-87358333D01*
X85466666Y-87263095D01*
X85466666Y-87167857D01*
X85514285Y-87072619D01*
X85561904Y-87025000D01*
X85657142Y-86977380D01*
X85895238Y-86977380D01*
X86038095Y-87025000D01*
X86371428Y-86977380D02*
X86609523Y-87977380D01*
X86800000Y-87263095D01*
X86990476Y-87977380D01*
X87228571Y-86977380D01*
X88133333Y-87977380D02*
X87561904Y-87977380D01*
X87847619Y-87977380D02*
X87847619Y-86977380D01*
X87752380Y-87120238D01*
X87657142Y-87215476D01*
X87561904Y-87263095D01*
%TO.C,J2*%
X117330666Y-118226380D02*
X117330666Y-118940666D01*
X117283047Y-119083523D01*
X117187809Y-119178761D01*
X117044952Y-119226380D01*
X116949714Y-119226380D01*
X117759238Y-118321619D02*
X117806857Y-118274000D01*
X117902095Y-118226380D01*
X118140190Y-118226380D01*
X118235428Y-118274000D01*
X118283047Y-118321619D01*
X118330666Y-118416857D01*
X118330666Y-118512095D01*
X118283047Y-118654952D01*
X117711619Y-119226380D01*
X118330666Y-119226380D01*
%TO.C,C18*%
X111687142Y-105532142D02*
X111639523Y-105579761D01*
X111496666Y-105627380D01*
X111401428Y-105627380D01*
X111258571Y-105579761D01*
X111163333Y-105484523D01*
X111115714Y-105389285D01*
X111068095Y-105198809D01*
X111068095Y-105055952D01*
X111115714Y-104865476D01*
X111163333Y-104770238D01*
X111258571Y-104675000D01*
X111401428Y-104627380D01*
X111496666Y-104627380D01*
X111639523Y-104675000D01*
X111687142Y-104722619D01*
X112639523Y-105627380D02*
X112068095Y-105627380D01*
X112353809Y-105627380D02*
X112353809Y-104627380D01*
X112258571Y-104770238D01*
X112163333Y-104865476D01*
X112068095Y-104913095D01*
X113210952Y-105055952D02*
X113115714Y-105008333D01*
X113068095Y-104960714D01*
X113020476Y-104865476D01*
X113020476Y-104817857D01*
X113068095Y-104722619D01*
X113115714Y-104675000D01*
X113210952Y-104627380D01*
X113401428Y-104627380D01*
X113496666Y-104675000D01*
X113544285Y-104722619D01*
X113591904Y-104817857D01*
X113591904Y-104865476D01*
X113544285Y-104960714D01*
X113496666Y-105008333D01*
X113401428Y-105055952D01*
X113210952Y-105055952D01*
X113115714Y-105103571D01*
X113068095Y-105151190D01*
X113020476Y-105246428D01*
X113020476Y-105436904D01*
X113068095Y-105532142D01*
X113115714Y-105579761D01*
X113210952Y-105627380D01*
X113401428Y-105627380D01*
X113496666Y-105579761D01*
X113544285Y-105532142D01*
X113591904Y-105436904D01*
X113591904Y-105246428D01*
X113544285Y-105151190D01*
X113496666Y-105103571D01*
X113401428Y-105055952D01*
%TO.C,R9*%
X92702333Y-106202380D02*
X92369000Y-105726190D01*
X92130904Y-106202380D02*
X92130904Y-105202380D01*
X92511857Y-105202380D01*
X92607095Y-105250000D01*
X92654714Y-105297619D01*
X92702333Y-105392857D01*
X92702333Y-105535714D01*
X92654714Y-105630952D01*
X92607095Y-105678571D01*
X92511857Y-105726190D01*
X92130904Y-105726190D01*
X93178523Y-106202380D02*
X93369000Y-106202380D01*
X93464238Y-106154761D01*
X93511857Y-106107142D01*
X93607095Y-105964285D01*
X93654714Y-105773809D01*
X93654714Y-105392857D01*
X93607095Y-105297619D01*
X93559476Y-105250000D01*
X93464238Y-105202380D01*
X93273761Y-105202380D01*
X93178523Y-105250000D01*
X93130904Y-105297619D01*
X93083285Y-105392857D01*
X93083285Y-105630952D01*
X93130904Y-105726190D01*
X93178523Y-105773809D01*
X93273761Y-105821428D01*
X93464238Y-105821428D01*
X93559476Y-105773809D01*
X93607095Y-105726190D01*
X93654714Y-105630952D01*
%TO.C,D1*%
X86445904Y-79658380D02*
X86445904Y-78658380D01*
X86684000Y-78658380D01*
X86826857Y-78706000D01*
X86922095Y-78801238D01*
X86969714Y-78896476D01*
X87017333Y-79086952D01*
X87017333Y-79229809D01*
X86969714Y-79420285D01*
X86922095Y-79515523D01*
X86826857Y-79610761D01*
X86684000Y-79658380D01*
X86445904Y-79658380D01*
X87969714Y-79658380D02*
X87398285Y-79658380D01*
X87684000Y-79658380D02*
X87684000Y-78658380D01*
X87588761Y-78801238D01*
X87493523Y-78896476D01*
X87398285Y-78944095D01*
%TO.C,FB1*%
X78730666Y-123020571D02*
X78397333Y-123020571D01*
X78397333Y-123544380D02*
X78397333Y-122544380D01*
X78873523Y-122544380D01*
X79587809Y-123020571D02*
X79730666Y-123068190D01*
X79778285Y-123115809D01*
X79825904Y-123211047D01*
X79825904Y-123353904D01*
X79778285Y-123449142D01*
X79730666Y-123496761D01*
X79635428Y-123544380D01*
X79254476Y-123544380D01*
X79254476Y-122544380D01*
X79587809Y-122544380D01*
X79683047Y-122592000D01*
X79730666Y-122639619D01*
X79778285Y-122734857D01*
X79778285Y-122830095D01*
X79730666Y-122925333D01*
X79683047Y-122972952D01*
X79587809Y-123020571D01*
X79254476Y-123020571D01*
X80778285Y-123544380D02*
X80206857Y-123544380D01*
X80492571Y-123544380D02*
X80492571Y-122544380D01*
X80397333Y-122687238D01*
X80302095Y-122782476D01*
X80206857Y-122830095D01*
D11*
%TO.C,R15*%
X103379000Y-100178841D02*
X103379000Y-99871559D01*
X104139000Y-100178841D02*
X104139000Y-99871559D01*
%TO.C,J1*%
X102874000Y-119481000D02*
X102474000Y-119931000D01*
X99624000Y-122731000D02*
X99924000Y-122731000D01*
X107924000Y-122731000D02*
X107924000Y-121181000D01*
X102074000Y-119481000D02*
X102874000Y-119481000D01*
X107624000Y-125531000D02*
X107624000Y-122731000D01*
X102474000Y-119931000D02*
X102074000Y-119481000D01*
X99624000Y-122731000D02*
X99624000Y-121181000D01*
X107624000Y-122731000D02*
X107924000Y-122731000D01*
X99924000Y-125531000D02*
X99924000Y-122731000D01*
%TO.C,U5*%
X105589600Y-101826800D02*
X105114600Y-101826800D01*
X101369600Y-101826800D02*
X101844600Y-101826800D01*
X101369600Y-102301800D02*
X101369600Y-101826800D01*
X101369600Y-105571800D02*
X101369600Y-106046800D01*
X105589600Y-105571800D02*
X105589600Y-106046800D01*
X105589600Y-102301800D02*
X105589600Y-101826800D01*
X105589600Y-106046800D02*
X105114600Y-106046800D01*
%TO.C,R8*%
X91066841Y-104621600D02*
X90759559Y-104621600D01*
X91066841Y-103861600D02*
X90759559Y-103861600D01*
%TO.C,C5*%
X104717964Y-114117800D02*
X104933636Y-114117800D01*
X104717964Y-114837800D02*
X104933636Y-114837800D01*
%TO.C,C2*%
X86757186Y-121819400D02*
X86541514Y-121819400D01*
X86757186Y-122539400D02*
X86541514Y-122539400D01*
%TO.C,C13*%
X79423420Y-111410000D02*
X79704580Y-111410000D01*
X79423420Y-110390000D02*
X79704580Y-110390000D01*
%TO.C,R7*%
X123785000Y-112962359D02*
X123785000Y-113269641D01*
X124545000Y-112962359D02*
X124545000Y-113269641D01*
%TO.C,C17*%
X87552164Y-101110000D02*
X87767836Y-101110000D01*
X87552164Y-100390000D02*
X87767836Y-100390000D01*
%TO.C,C8*%
X75894580Y-110644000D02*
X75613420Y-110644000D01*
X75894580Y-111664000D02*
X75613420Y-111664000D01*
%TO.C,C3*%
X127385000Y-113010164D02*
X127385000Y-113225836D01*
X126665000Y-113010164D02*
X126665000Y-113225836D01*
%TO.C,C4*%
X102063436Y-114117800D02*
X101847764Y-114117800D01*
X102063436Y-114837800D02*
X101847764Y-114837800D01*
%TO.C,C19*%
X107181764Y-106252600D02*
X107397436Y-106252600D01*
X107181764Y-105532600D02*
X107397436Y-105532600D01*
%TO.C,C14*%
X79312000Y-108500580D02*
X79312000Y-108219420D01*
X78292000Y-108500580D02*
X78292000Y-108219420D01*
%TO.C,R14*%
X110008641Y-103480600D02*
X109701359Y-103480600D01*
X110008641Y-104240600D02*
X109701359Y-104240600D01*
%TO.C,R2*%
X102072500Y-111895658D02*
X102072500Y-111421142D01*
X103117500Y-111895658D02*
X103117500Y-111421142D01*
%TO.C,C20*%
X107181764Y-106650200D02*
X107397436Y-106650200D01*
X107181764Y-107370200D02*
X107397436Y-107370200D01*
%TO.C,R13*%
X129569800Y-93812441D02*
X129569800Y-93505159D01*
X128809800Y-93812441D02*
X128809800Y-93505159D01*
D12*
%TO.C,U1*%
X102690000Y-115579800D02*
X104190000Y-115579800D01*
X104190000Y-118709800D02*
X102690000Y-118709800D01*
D13*
X105965000Y-118119800D02*
G75*
G03*
X105965000Y-118119800I-100000J0D01*
G01*
D11*
%TO.C,R11*%
X127559800Y-93812441D02*
X127559800Y-93505159D01*
X128319800Y-93812441D02*
X128319800Y-93505159D01*
%TO.C,C16*%
X84072164Y-100390000D02*
X84287836Y-100390000D01*
X84072164Y-101110000D02*
X84287836Y-101110000D01*
%TO.C,C15*%
X132092164Y-71424000D02*
X132307836Y-71424000D01*
X132092164Y-72144000D02*
X132307836Y-72144000D01*
%TO.C,R3*%
X92366841Y-84787800D02*
X92059559Y-84787800D01*
X92366841Y-84027800D02*
X92059559Y-84027800D01*
%TO.C,C11*%
X123538000Y-105470636D02*
X123538000Y-105254964D01*
X122818000Y-105470636D02*
X122818000Y-105254964D01*
%TO.C,C1*%
X86498130Y-123930000D02*
X86216970Y-123930000D01*
X86498130Y-124950000D02*
X86216970Y-124950000D01*
%TO.C,C7*%
X123730000Y-108337836D02*
X123730000Y-108122164D01*
X123010000Y-108337836D02*
X123010000Y-108122164D01*
%TO.C,C8*%
X126025000Y-113008164D02*
X126025000Y-113223836D01*
X125305000Y-113008164D02*
X125305000Y-113223836D01*
%TO.C,U3*%
X82212000Y-112460000D02*
X82212000Y-118470000D01*
X75392000Y-118470000D02*
X76652000Y-118470000D01*
X82212000Y-118470000D02*
X80952000Y-118470000D01*
X75392000Y-114710000D02*
X75392000Y-118470000D01*
%TO.C,R10*%
X110008641Y-102337600D02*
X109701359Y-102337600D01*
X110008641Y-103097600D02*
X109701359Y-103097600D01*
%TO.C,Q2*%
X88320000Y-103930000D02*
X88320000Y-102520000D01*
X87660000Y-102520000D02*
X88320000Y-102520000D01*
X86000000Y-102520000D02*
X86660000Y-102520000D01*
X86000000Y-102520000D02*
X86000000Y-104550000D01*
%TO.C,U2*%
X127985000Y-111078000D02*
X127510000Y-111078000D01*
X124765000Y-108333000D02*
X124765000Y-107858000D01*
X124765000Y-110603000D02*
X124765000Y-111078000D01*
X124765000Y-107858000D02*
X125240000Y-107858000D01*
X127985000Y-110603000D02*
X127985000Y-111078000D01*
X124765000Y-111078000D02*
X125240000Y-111078000D01*
X127985000Y-108333000D02*
X127985000Y-107858000D01*
%TO.C,SW2*%
X95210000Y-88900000D02*
X101510000Y-88900000D01*
X101510000Y-95550000D02*
X101510000Y-95800000D01*
X95210000Y-93650000D02*
X95210000Y-91050000D01*
X101510000Y-88900000D02*
X101510000Y-89150000D01*
X101510000Y-95800000D02*
X95210000Y-95800000D01*
X95210000Y-95800000D02*
X95210000Y-95550000D01*
X95210000Y-89150000D02*
X95210000Y-88900000D01*
X101510000Y-91050000D02*
X101510000Y-93650000D01*
%TO.C,C12*%
X124204000Y-105181980D02*
X124204000Y-104900820D01*
X125224000Y-105181980D02*
X125224000Y-104900820D01*
%TO.C,R5*%
X128285000Y-113269641D02*
X128285000Y-112962359D01*
X129045000Y-113269641D02*
X129045000Y-112962359D01*
%TO.C,C9*%
X130905000Y-112475420D02*
X130905000Y-112756580D01*
X131925000Y-112475420D02*
X131925000Y-112756580D01*
%TO.C,U4*%
X114884800Y-73183600D02*
X114884800Y-74183600D01*
X114884800Y-91423600D02*
X114884800Y-90423600D01*
X115664800Y-91423600D02*
X114884800Y-91423600D01*
X134209800Y-73183600D02*
X134209800Y-72803600D01*
X140629800Y-73183600D02*
X140629800Y-91423600D01*
X140629800Y-91423600D02*
X134209800Y-91423600D01*
X115664800Y-73183600D02*
X114884800Y-73183600D01*
X140629800Y-73183600D02*
X134209800Y-73183600D01*
%TO.C,R12*%
X109726759Y-106120000D02*
X110034041Y-106120000D01*
X109726759Y-106880000D02*
X110034041Y-106880000D01*
%TO.C,R6*%
X131023641Y-108359000D02*
X130716359Y-108359000D01*
X131023641Y-107599000D02*
X130716359Y-107599000D01*
%TO.C,Q1*%
X82500000Y-102520000D02*
X83160000Y-102520000D01*
X84820000Y-103930000D02*
X84820000Y-102520000D01*
X82500000Y-102520000D02*
X82500000Y-104550000D01*
X84160000Y-102520000D02*
X84820000Y-102520000D01*
%TO.C,R1*%
X103774300Y-111895658D02*
X103774300Y-111421142D01*
X104819300Y-111895658D02*
X104819300Y-111421142D01*
%TO.C,R4*%
X92366841Y-82277800D02*
X92059559Y-82277800D01*
X92366841Y-83037800D02*
X92059559Y-83037800D01*
%TO.C,SW1*%
X83760000Y-93625000D02*
X83760000Y-91025000D01*
X90060000Y-91025000D02*
X90060000Y-93625000D01*
X90060000Y-95525000D02*
X90060000Y-95775000D01*
X83760000Y-95775000D02*
X83760000Y-95525000D01*
X83760000Y-88875000D02*
X90060000Y-88875000D01*
X83760000Y-89125000D02*
X83760000Y-88875000D01*
X90060000Y-88875000D02*
X90060000Y-89125000D01*
X90060000Y-95775000D02*
X83760000Y-95775000D01*
%TO.C,J2*%
X114818000Y-121021000D02*
X114818000Y-120011000D01*
X121248000Y-119911000D02*
X121248000Y-125961000D01*
X113448000Y-125961000D02*
X113448000Y-119911000D01*
X121248000Y-125961000D02*
X113448000Y-125961000D01*
X119898000Y-121021000D02*
X114818000Y-121021000D01*
X113448000Y-119911000D02*
X121248000Y-119911000D01*
X119898000Y-120011000D02*
X119898000Y-121021000D01*
%TO.C,C18*%
X109747164Y-104815000D02*
X109962836Y-104815000D01*
X109747164Y-105535000D02*
X109962836Y-105535000D01*
%TO.C,R9*%
X91066841Y-106130000D02*
X90759559Y-106130000D01*
X91066841Y-105370000D02*
X90759559Y-105370000D01*
%TO.C,D1*%
X83584000Y-81106000D02*
X83584000Y-80006000D01*
X83584000Y-80006000D02*
X89684000Y-80006000D01*
X89684000Y-85406000D02*
X84684000Y-85406000D01*
%TO.C,FB1*%
X82774779Y-122654000D02*
X82449221Y-122654000D01*
X82774779Y-123674000D02*
X82449221Y-123674000D01*
%TD*%
M02*
