%TF.GenerationSoftware,KiCad,Pcbnew,(6.0.7)*%
%TF.CreationDate,2022-10-04T00:35:33-03:00*%
%TF.ProjectId,wireless,77697265-6c65-4737-932e-6b696361645f,rev?*%
%TF.SameCoordinates,Original*%
%TF.FileFunction,Copper,L2,Bot*%
%TF.FilePolarity,Positive*%
%FSLAX46Y46*%
G04 Gerber Fmt 4.6, Leading zero omitted, Abs format (unit mm)*
G04 Created by KiCad (PCBNEW (6.0.7)) date 2022-10-04 00:35:33*
%MOMM*%
%LPD*%
G01*
G04 APERTURE LIST*
%TA.AperFunction,ComponentPad*%
%ADD10O,1.100000X1.500000*%
%TD*%
%TA.AperFunction,ComponentPad*%
%ADD11O,1.350000X1.700000*%
%TD*%
%TA.AperFunction,ComponentPad*%
%ADD12R,1.730000X2.030000*%
%TD*%
%TA.AperFunction,ComponentPad*%
%ADD13O,1.730000X2.030000*%
%TD*%
%TA.AperFunction,ViaPad*%
%ADD14C,0.500000*%
%TD*%
%TA.AperFunction,Conductor*%
%ADD15C,0.254000*%
%TD*%
%TA.AperFunction,Conductor*%
%ADD16C,0.127000*%
%TD*%
G04 APERTURE END LIST*
D10*
%TO.P,J1,6,Shield*%
%TO.N,GND*%
X101354000Y-120911000D03*
D11*
X101044000Y-123911000D03*
X106504000Y-123911000D03*
D10*
X106194000Y-120911000D03*
%TD*%
D12*
%TO.P,J2,1,Pin_1*%
%TO.N,/power_supply/TS*%
X119898000Y-123311000D03*
D13*
%TO.P,J2,2,Pin_2*%
%TO.N,GND*%
X117358000Y-123311000D03*
%TO.P,J2,3,Pin_3*%
%TO.N,+BATT*%
X114818000Y-123311000D03*
%TD*%
D14*
%TO.N,GND*%
X83882000Y-118266000D03*
X83882000Y-110646000D03*
X80834000Y-107344000D03*
X81342000Y-127410000D03*
X72198000Y-120552000D03*
X92772000Y-93628000D03*
X114870000Y-90580000D03*
X91756000Y-97692000D03*
X84644000Y-95660000D03*
X88708000Y-95660000D03*
X97852000Y-95914000D03*
X94296000Y-98454000D03*
X94042000Y-101756000D03*
X91502000Y-101756000D03*
X89724000Y-99724000D03*
X107250000Y-95914000D03*
X117156000Y-94136000D03*
X119188000Y-92866000D03*
X121728000Y-94644000D03*
X121728000Y-92866000D03*
X125284000Y-94898000D03*
X125284000Y-93120000D03*
X128840000Y-72292000D03*
X110298000Y-73816000D03*
X111314000Y-72800000D03*
X92264000Y-85754000D03*
X90232000Y-86008000D03*
X91502000Y-87024000D03*
X87184000Y-80674000D03*
X87692000Y-83214000D03*
X91248000Y-83468000D03*
X77786000Y-104550000D03*
X90994000Y-121060000D03*
X84136000Y-121568000D03*
X99122000Y-118012000D03*
X99376000Y-106074000D03*
X93534000Y-104550000D03*
X88708000Y-123346000D03*
X76516000Y-116488000D03*
X80326000Y-109122000D03*
X73976000Y-117758000D03*
X74484000Y-86770000D03*
X88454000Y-71276000D03*
X130364000Y-71276000D03*
X131634000Y-105820000D03*
X131126000Y-94898000D03*
X130364000Y-93628000D03*
X132904000Y-110392000D03*
X101916000Y-99724000D03*
X89470000Y-102010000D03*
X106742000Y-103026000D03*
X112076000Y-125632000D03*
X109536000Y-125632000D03*
X106488000Y-119028000D03*
X105472000Y-107344000D03*
X122490000Y-111535000D03*
%TO.N,/power_supply/~{CE}*%
X126300000Y-104550000D03*
%TO.N,GND*%
X126046000Y-96422000D03*
X105079800Y-119557800D03*
X131394200Y-114456000D03*
X127316000Y-96422000D03*
X132500000Y-76044000D03*
X123164600Y-104114600D03*
X79831000Y-107585000D03*
X127570000Y-98454000D03*
X119442000Y-98454000D03*
X120966000Y-96168000D03*
X109143800Y-120904000D03*
X96610000Y-90050000D03*
X133025000Y-92725000D03*
X98983800Y-122936000D03*
X123950000Y-110550000D03*
X100431600Y-114452400D03*
X128676400Y-114401600D03*
X100210000Y-90150000D03*
X100646000Y-102010000D03*
X117373400Y-121767600D03*
X106045000Y-117144800D03*
X125030000Y-96422000D03*
X107758000Y-90326000D03*
X131761000Y-109884000D03*
X108316800Y-109833200D03*
X85510000Y-90025000D03*
X96582000Y-103280000D03*
X89360000Y-100750000D03*
X125550000Y-85344000D03*
X85660000Y-100750000D03*
X104800000Y-99525000D03*
X106324400Y-114452400D03*
X102805000Y-126140000D03*
X111175000Y-105175000D03*
X122550000Y-109383500D03*
X81229800Y-115949400D03*
X124776000Y-98454000D03*
X84300000Y-124450000D03*
X108520000Y-103860600D03*
X123506000Y-96168000D03*
X107527075Y-88279500D03*
X98983800Y-120954800D03*
X118200000Y-107000000D03*
X129094000Y-106074000D03*
X123810800Y-102772000D03*
X121220000Y-98454000D03*
X131386600Y-107004500D03*
X108520000Y-107725000D03*
X125792000Y-98454000D03*
X130364000Y-110900000D03*
X102322400Y-107039200D03*
X96582000Y-102010000D03*
X132000000Y-88294000D03*
X98614000Y-102010000D03*
X108534200Y-105867200D03*
X123506000Y-98454000D03*
X96582000Y-104042000D03*
X120650000Y-105050000D03*
X73887400Y-111121600D03*
X110044000Y-88279500D03*
X125653800Y-114376200D03*
X123364000Y-106899200D03*
X109790000Y-90326000D03*
X112076000Y-108868000D03*
X121982000Y-98454000D03*
X88910000Y-90075000D03*
X121982000Y-96168000D03*
X104724200Y-126140000D03*
X128840000Y-98454000D03*
X109118400Y-122986800D03*
X110145600Y-107547200D03*
X119696000Y-96168000D03*
X132700000Y-70900000D03*
X98614000Y-103280000D03*
X113092000Y-76610000D03*
X81357300Y-110930600D03*
X130364000Y-106836000D03*
X119700000Y-109000000D03*
X85050000Y-122200000D03*
X124180600Y-114376200D03*
X118100000Y-109550000D03*
X127025400Y-114376200D03*
%TO.N,/ucontroller/EN*%
X108774000Y-90326000D03*
X108774000Y-87532000D03*
%TO.N,/usb/3V3_CP*%
X110501200Y-108410800D03*
X108367600Y-108461600D03*
%TO.N,/power_supply/~{PG}*%
X119850000Y-105650000D03*
X120204000Y-107852000D03*
%TO.N,/power_supply/~{CHG}*%
X119000000Y-108900000D03*
X119000000Y-106400000D03*
%TO.N,/power_supply/TS*%
X129275000Y-108000000D03*
X129602000Y-111662000D03*
%TO.N,Net-(R11-Pad1)*%
X97598000Y-104050000D03*
X97598000Y-102010000D03*
X127950000Y-97025000D03*
X119600000Y-97025000D03*
%TO.N,Net-(R13-Pad1)*%
X118680000Y-97601500D03*
X99700000Y-102010000D03*
X129200000Y-97438000D03*
X99884000Y-103473500D03*
%TO.N,/power_supply/~{CE}*%
X126048500Y-106530598D03*
%TD*%
D15*
%TO.N,/power_supply/~{CE}*%
X126300000Y-104550000D02*
X126048500Y-104801500D01*
X126048500Y-104801500D02*
X126048500Y-106530598D01*
%TO.N,/ucontroller/EN*%
X108774000Y-87532000D02*
X108774000Y-90326000D01*
%TO.N,/usb/3V3_CP*%
X108367600Y-108461600D02*
X108418400Y-108410800D01*
X108418400Y-108410800D02*
X110501200Y-108410800D01*
%TO.N,/power_supply/~{PG}*%
X120204000Y-107852000D02*
X119850000Y-107498000D01*
X119850000Y-107498000D02*
X119850000Y-105650000D01*
%TO.N,/power_supply/~{CHG}*%
X119000000Y-108900000D02*
X119000000Y-106400000D01*
%TO.N,/power_supply/TS*%
X129313500Y-111373500D02*
X129602000Y-111662000D01*
D16*
X129275000Y-108000000D02*
X129313500Y-108038500D01*
D15*
X129313500Y-108038500D02*
X129313500Y-111373500D01*
%TO.N,Net-(R11-Pad1)*%
X97598000Y-102010000D02*
X97598000Y-104050000D01*
X127950000Y-97025000D02*
X119600000Y-97025000D01*
%TO.N,Net-(R13-Pad1)*%
X99700000Y-103289500D02*
X99700000Y-102010000D01*
X129036500Y-97601500D02*
X118680000Y-97601500D01*
X129200000Y-97438000D02*
X129036500Y-97601500D01*
X99884000Y-103473500D02*
X99700000Y-103289500D01*
%TD*%
%TA.AperFunction,Conductor*%
%TO.N,GND*%
G36*
X133546324Y-69262861D02*
G01*
X133592818Y-69316516D01*
X133604205Y-69368654D01*
X133699794Y-127972654D01*
X133679903Y-128040808D01*
X133626323Y-128087388D01*
X133573796Y-128098860D01*
X102528075Y-128099426D01*
X71126391Y-128099998D01*
X71058271Y-128079997D01*
X71011777Y-128026342D01*
X71000391Y-127973608D01*
X71009858Y-124912095D01*
X72375028Y-124912095D01*
X72400534Y-125179431D01*
X72401619Y-125183865D01*
X72401620Y-125183871D01*
X72443525Y-125355121D01*
X72464364Y-125440285D01*
X72565182Y-125689192D01*
X72700875Y-125920938D01*
X72703728Y-125924505D01*
X72815225Y-126063925D01*
X72868601Y-126130669D01*
X73064846Y-126313991D01*
X73157039Y-126377948D01*
X73281746Y-126464461D01*
X73281751Y-126464464D01*
X73285499Y-126467064D01*
X73289584Y-126469096D01*
X73289587Y-126469098D01*
X73405718Y-126526872D01*
X73525938Y-126586680D01*
X73530272Y-126588101D01*
X73530275Y-126588102D01*
X73776793Y-126668915D01*
X73776798Y-126668916D01*
X73781126Y-126670335D01*
X73785617Y-126671115D01*
X73785618Y-126671115D01*
X74041936Y-126715620D01*
X74041944Y-126715621D01*
X74045717Y-126716276D01*
X74049554Y-126716467D01*
X74128996Y-126720422D01*
X74129004Y-126720422D01*
X74130567Y-126720500D01*
X74298223Y-126720500D01*
X74300491Y-126720335D01*
X74300503Y-126720335D01*
X74430823Y-126710879D01*
X74497846Y-126706016D01*
X74502301Y-126705032D01*
X74502304Y-126705032D01*
X74755620Y-126649105D01*
X74755624Y-126649104D01*
X74760080Y-126648120D01*
X74927617Y-126584646D01*
X75006941Y-126554593D01*
X75006944Y-126554592D01*
X75011211Y-126552975D01*
X75245976Y-126422574D01*
X75388254Y-126313991D01*
X75455833Y-126262417D01*
X75455837Y-126262413D01*
X75459458Y-126259650D01*
X75647185Y-126067614D01*
X75805225Y-125850491D01*
X75892313Y-125684963D01*
X75928140Y-125616868D01*
X75928143Y-125616862D01*
X75930265Y-125612828D01*
X75989703Y-125444515D01*
X76018165Y-125363916D01*
X76018165Y-125363915D01*
X76019688Y-125359603D01*
X76056097Y-125174879D01*
X76070739Y-125100594D01*
X76070740Y-125100588D01*
X76071620Y-125096122D01*
X76074830Y-125031640D01*
X76084745Y-124832474D01*
X76084745Y-124832468D01*
X76084972Y-124827905D01*
X76059466Y-124560569D01*
X76052385Y-124531629D01*
X75996721Y-124304149D01*
X75995636Y-124299715D01*
X75947716Y-124181405D01*
X99864698Y-124181405D01*
X99875297Y-124296754D01*
X99877394Y-124308068D01*
X99933275Y-124506206D01*
X99937397Y-124516945D01*
X100028451Y-124701583D01*
X100034462Y-124711392D01*
X100157640Y-124876349D01*
X100165329Y-124884889D01*
X100316510Y-125024639D01*
X100325635Y-125031640D01*
X100499745Y-125141495D01*
X100509992Y-125146716D01*
X100701207Y-125223003D01*
X100712233Y-125226270D01*
X100772230Y-125238203D01*
X100785106Y-125237051D01*
X100789107Y-125224663D01*
X101298000Y-125224663D01*
X101301806Y-125237625D01*
X101316722Y-125239561D01*
X101345798Y-125234565D01*
X101356918Y-125231585D01*
X101550060Y-125160331D01*
X101560438Y-125155381D01*
X101737361Y-125050123D01*
X101746673Y-125043357D01*
X101901453Y-124907619D01*
X101909370Y-124899276D01*
X102036820Y-124737606D01*
X102043091Y-124727950D01*
X102138940Y-124545771D01*
X102143345Y-124535137D01*
X102204393Y-124338530D01*
X102206785Y-124327276D01*
X102223863Y-124182988D01*
X102223595Y-124181405D01*
X105324698Y-124181405D01*
X105335297Y-124296754D01*
X105337394Y-124308068D01*
X105393275Y-124506206D01*
X105397397Y-124516945D01*
X105488451Y-124701583D01*
X105494462Y-124711392D01*
X105617640Y-124876349D01*
X105625329Y-124884889D01*
X105776510Y-125024639D01*
X105785635Y-125031640D01*
X105959745Y-125141495D01*
X105969992Y-125146716D01*
X106161207Y-125223003D01*
X106172233Y-125226270D01*
X106232230Y-125238203D01*
X106245106Y-125237051D01*
X106249107Y-125224663D01*
X106758000Y-125224663D01*
X106761806Y-125237625D01*
X106776722Y-125239561D01*
X106805798Y-125234565D01*
X106816918Y-125231585D01*
X107010060Y-125160331D01*
X107020438Y-125155381D01*
X107197361Y-125050123D01*
X107206673Y-125043357D01*
X107356349Y-124912095D01*
X128890028Y-124912095D01*
X128915534Y-125179431D01*
X128916619Y-125183865D01*
X128916620Y-125183871D01*
X128958525Y-125355121D01*
X128979364Y-125440285D01*
X129080182Y-125689192D01*
X129215875Y-125920938D01*
X129218728Y-125924505D01*
X129330225Y-126063925D01*
X129383601Y-126130669D01*
X129579846Y-126313991D01*
X129672039Y-126377948D01*
X129796746Y-126464461D01*
X129796751Y-126464464D01*
X129800499Y-126467064D01*
X129804584Y-126469096D01*
X129804587Y-126469098D01*
X129920718Y-126526872D01*
X130040938Y-126586680D01*
X130045272Y-126588101D01*
X130045275Y-126588102D01*
X130291793Y-126668915D01*
X130291798Y-126668916D01*
X130296126Y-126670335D01*
X130300617Y-126671115D01*
X130300618Y-126671115D01*
X130556936Y-126715620D01*
X130556944Y-126715621D01*
X130560717Y-126716276D01*
X130564554Y-126716467D01*
X130643996Y-126720422D01*
X130644004Y-126720422D01*
X130645567Y-126720500D01*
X130813223Y-126720500D01*
X130815491Y-126720335D01*
X130815503Y-126720335D01*
X130945823Y-126710879D01*
X131012846Y-126706016D01*
X131017301Y-126705032D01*
X131017304Y-126705032D01*
X131270620Y-126649105D01*
X131270624Y-126649104D01*
X131275080Y-126648120D01*
X131442617Y-126584646D01*
X131521941Y-126554593D01*
X131521944Y-126554592D01*
X131526211Y-126552975D01*
X131760976Y-126422574D01*
X131903254Y-126313991D01*
X131970833Y-126262417D01*
X131970837Y-126262413D01*
X131974458Y-126259650D01*
X132162185Y-126067614D01*
X132320225Y-125850491D01*
X132407313Y-125684963D01*
X132443140Y-125616868D01*
X132443143Y-125616862D01*
X132445265Y-125612828D01*
X132504703Y-125444515D01*
X132533165Y-125363916D01*
X132533165Y-125363915D01*
X132534688Y-125359603D01*
X132571097Y-125174879D01*
X132585739Y-125100594D01*
X132585740Y-125100588D01*
X132586620Y-125096122D01*
X132589830Y-125031640D01*
X132599745Y-124832474D01*
X132599745Y-124832468D01*
X132599972Y-124827905D01*
X132574466Y-124560569D01*
X132567385Y-124531629D01*
X132511721Y-124304149D01*
X132510636Y-124299715D01*
X132462716Y-124181405D01*
X132411531Y-124055037D01*
X132411531Y-124055036D01*
X132409818Y-124050808D01*
X132274125Y-123819062D01*
X132163211Y-123680371D01*
X132109251Y-123612897D01*
X132109250Y-123612895D01*
X132106399Y-123609331D01*
X131910154Y-123426009D01*
X131753633Y-123317426D01*
X131693254Y-123275539D01*
X131693249Y-123275536D01*
X131689501Y-123272936D01*
X131685416Y-123270904D01*
X131685413Y-123270902D01*
X131513560Y-123185407D01*
X131449062Y-123153320D01*
X131444728Y-123151899D01*
X131444725Y-123151898D01*
X131198207Y-123071085D01*
X131198202Y-123071084D01*
X131193874Y-123069665D01*
X131189382Y-123068885D01*
X130933064Y-123024380D01*
X130933056Y-123024379D01*
X130929283Y-123023724D01*
X130920622Y-123023293D01*
X130846004Y-123019578D01*
X130845996Y-123019578D01*
X130844433Y-123019500D01*
X130676777Y-123019500D01*
X130674509Y-123019665D01*
X130674497Y-123019665D01*
X130544177Y-123029121D01*
X130477154Y-123033984D01*
X130472699Y-123034968D01*
X130472696Y-123034968D01*
X130219380Y-123090895D01*
X130219376Y-123090896D01*
X130214920Y-123091880D01*
X130139598Y-123120417D01*
X129968059Y-123185407D01*
X129968056Y-123185408D01*
X129963789Y-123187025D01*
X129959798Y-123189242D01*
X129784048Y-123286863D01*
X129729024Y-123317426D01*
X129725392Y-123320198D01*
X129519167Y-123477583D01*
X129519163Y-123477587D01*
X129515542Y-123480350D01*
X129512357Y-123483608D01*
X129512356Y-123483609D01*
X129480065Y-123516641D01*
X129327815Y-123672386D01*
X129325130Y-123676075D01*
X129174676Y-123882776D01*
X129169775Y-123889509D01*
X129167651Y-123893547D01*
X129046860Y-124123132D01*
X129046857Y-124123138D01*
X129044735Y-124127172D01*
X129043215Y-124131477D01*
X129043213Y-124131481D01*
X128962607Y-124359740D01*
X128955312Y-124380397D01*
X128903380Y-124643878D01*
X128903153Y-124648431D01*
X128903153Y-124648434D01*
X128893992Y-124832474D01*
X128890028Y-124912095D01*
X107356349Y-124912095D01*
X107361453Y-124907619D01*
X107369370Y-124899276D01*
X107496820Y-124737606D01*
X107503091Y-124727950D01*
X107598940Y-124545771D01*
X107603345Y-124535137D01*
X107664393Y-124338530D01*
X107666785Y-124327276D01*
X107683863Y-124182988D01*
X107681421Y-124168569D01*
X107668679Y-124165000D01*
X106776115Y-124165000D01*
X106760876Y-124169475D01*
X106759671Y-124170865D01*
X106758000Y-124178548D01*
X106758000Y-125224663D01*
X106249107Y-125224663D01*
X106250000Y-125221898D01*
X106250000Y-124183115D01*
X106245525Y-124167876D01*
X106244135Y-124166671D01*
X106236452Y-124165000D01*
X105341306Y-124165000D01*
X105326761Y-124169271D01*
X105324698Y-124181405D01*
X102223595Y-124181405D01*
X102221421Y-124168569D01*
X102208679Y-124165000D01*
X101316115Y-124165000D01*
X101300876Y-124169475D01*
X101299671Y-124170865D01*
X101298000Y-124178548D01*
X101298000Y-125224663D01*
X100789107Y-125224663D01*
X100790000Y-125221898D01*
X100790000Y-124183115D01*
X100785525Y-124167876D01*
X100784135Y-124166671D01*
X100776452Y-124165000D01*
X99881306Y-124165000D01*
X99866761Y-124169271D01*
X99864698Y-124181405D01*
X75947716Y-124181405D01*
X75896531Y-124055037D01*
X75896531Y-124055036D01*
X75894818Y-124050808D01*
X75759125Y-123819062D01*
X75648211Y-123680371D01*
X75615136Y-123639012D01*
X99864137Y-123639012D01*
X99866579Y-123653431D01*
X99879321Y-123657000D01*
X100771885Y-123657000D01*
X100787124Y-123652525D01*
X100788329Y-123651135D01*
X100790000Y-123643452D01*
X100790000Y-123638885D01*
X101298000Y-123638885D01*
X101302475Y-123654124D01*
X101303865Y-123655329D01*
X101311548Y-123657000D01*
X102206694Y-123657000D01*
X102221239Y-123652729D01*
X102223302Y-123640595D01*
X102223157Y-123639012D01*
X105324137Y-123639012D01*
X105326579Y-123653431D01*
X105339321Y-123657000D01*
X106231885Y-123657000D01*
X106247124Y-123652525D01*
X106248329Y-123651135D01*
X106250000Y-123643452D01*
X106250000Y-123638885D01*
X106758000Y-123638885D01*
X106762475Y-123654124D01*
X106763865Y-123655329D01*
X106771548Y-123657000D01*
X107666694Y-123657000D01*
X107681239Y-123652729D01*
X107683302Y-123640595D01*
X107672703Y-123525246D01*
X107670606Y-123513932D01*
X107670506Y-123513576D01*
X113752500Y-123513576D01*
X113767735Y-123668958D01*
X113828130Y-123868995D01*
X113831023Y-123874436D01*
X113839038Y-123889509D01*
X113926229Y-124053491D01*
X114058295Y-124215420D01*
X114219297Y-124348613D01*
X114403104Y-124447997D01*
X114498229Y-124477443D01*
X114596828Y-124507965D01*
X114596831Y-124507966D01*
X114602715Y-124509787D01*
X114608840Y-124510431D01*
X114608841Y-124510431D01*
X114804397Y-124530985D01*
X114804398Y-124530985D01*
X114810525Y-124531629D01*
X114968108Y-124517288D01*
X115012480Y-124513250D01*
X115012481Y-124513250D01*
X115018621Y-124512691D01*
X115024535Y-124510950D01*
X115024537Y-124510950D01*
X115213155Y-124455436D01*
X115213154Y-124455436D01*
X115219074Y-124453694D01*
X115404251Y-124356886D01*
X115567098Y-124225954D01*
X115606877Y-124178548D01*
X115697453Y-124070603D01*
X115701412Y-124065885D01*
X115704376Y-124060493D01*
X115704379Y-124060489D01*
X115796156Y-123893547D01*
X115802077Y-123882776D01*
X115805642Y-123871539D01*
X115845304Y-123812655D01*
X115910505Y-123784561D01*
X115980545Y-123796177D01*
X116033186Y-123843816D01*
X116047703Y-123877981D01*
X116056932Y-123913540D01*
X116060466Y-123923575D01*
X116151778Y-124126280D01*
X116156958Y-124135586D01*
X116281120Y-124320010D01*
X116287781Y-124328296D01*
X116441254Y-124489177D01*
X116449211Y-124496217D01*
X116627590Y-124628934D01*
X116636634Y-124634542D01*
X116834818Y-124735303D01*
X116844679Y-124739307D01*
X117056999Y-124805235D01*
X117067394Y-124807520D01*
X117086041Y-124809992D01*
X117100208Y-124807795D01*
X117104000Y-124794611D01*
X117104000Y-124792519D01*
X117612000Y-124792519D01*
X117615973Y-124806050D01*
X117626580Y-124807575D01*
X117748745Y-124781942D01*
X117758942Y-124778882D01*
X117965722Y-124697221D01*
X117975254Y-124692490D01*
X118165330Y-124577149D01*
X118173925Y-124570880D01*
X118341839Y-124425172D01*
X118349265Y-124417536D01*
X118490232Y-124245614D01*
X118496254Y-124236852D01*
X118596998Y-124059872D01*
X118648081Y-124010566D01*
X118717711Y-123996705D01*
X118783782Y-124022689D01*
X118825316Y-124080268D01*
X118832500Y-124122205D01*
X118832500Y-124345748D01*
X118833707Y-124351816D01*
X118840284Y-124384879D01*
X118844133Y-124404231D01*
X118888448Y-124470552D01*
X118954769Y-124514867D01*
X118966938Y-124517288D01*
X118966939Y-124517288D01*
X119007184Y-124525293D01*
X119013252Y-124526500D01*
X120782748Y-124526500D01*
X120788816Y-124525293D01*
X120829061Y-124517288D01*
X120829062Y-124517288D01*
X120841231Y-124514867D01*
X120907552Y-124470552D01*
X120951867Y-124404231D01*
X120955717Y-124384879D01*
X120962293Y-124351816D01*
X120963500Y-124345748D01*
X120963500Y-122276252D01*
X120951867Y-122217769D01*
X120907552Y-122151448D01*
X120841231Y-122107133D01*
X120829062Y-122104712D01*
X120829061Y-122104712D01*
X120788816Y-122096707D01*
X120782748Y-122095500D01*
X119013252Y-122095500D01*
X119007184Y-122096707D01*
X118966939Y-122104712D01*
X118966938Y-122104712D01*
X118954769Y-122107133D01*
X118888448Y-122151448D01*
X118844133Y-122217769D01*
X118832500Y-122276252D01*
X118832500Y-122504787D01*
X118812498Y-122572908D01*
X118758842Y-122619401D01*
X118688568Y-122629505D01*
X118623988Y-122600011D01*
X118591618Y-122556537D01*
X118564222Y-122495720D01*
X118559042Y-122486414D01*
X118434880Y-122301990D01*
X118428219Y-122293704D01*
X118274746Y-122132823D01*
X118266789Y-122125783D01*
X118088410Y-121993066D01*
X118079366Y-121987458D01*
X117881182Y-121886697D01*
X117871321Y-121882693D01*
X117659001Y-121816765D01*
X117648606Y-121814480D01*
X117629959Y-121812008D01*
X117615792Y-121814205D01*
X117612000Y-121827389D01*
X117612000Y-124792519D01*
X117104000Y-124792519D01*
X117104000Y-121829481D01*
X117100027Y-121815950D01*
X117089420Y-121814425D01*
X116967255Y-121840058D01*
X116957058Y-121843118D01*
X116750278Y-121924779D01*
X116740746Y-121929510D01*
X116550670Y-122044851D01*
X116542075Y-122051120D01*
X116374161Y-122196828D01*
X116366735Y-122204464D01*
X116225768Y-122376386D01*
X116219746Y-122385148D01*
X116109756Y-122578370D01*
X116105294Y-122588027D01*
X116044853Y-122754538D01*
X116002808Y-122811746D01*
X115936509Y-122837141D01*
X115867004Y-122822661D01*
X115816362Y-122772902D01*
X115809920Y-122759559D01*
X115809654Y-122758913D01*
X115807870Y-122753005D01*
X115803663Y-122745093D01*
X115712667Y-122573955D01*
X115712666Y-122573953D01*
X115709771Y-122568509D01*
X115577705Y-122406580D01*
X115416703Y-122273387D01*
X115232896Y-122174003D01*
X115106255Y-122134801D01*
X115039172Y-122114035D01*
X115039169Y-122114034D01*
X115033285Y-122112213D01*
X115027160Y-122111569D01*
X115027159Y-122111569D01*
X114831603Y-122091015D01*
X114831602Y-122091015D01*
X114825475Y-122090371D01*
X114736745Y-122098446D01*
X114623520Y-122108750D01*
X114623519Y-122108750D01*
X114617379Y-122109309D01*
X114611465Y-122111050D01*
X114611463Y-122111050D01*
X114474352Y-122151404D01*
X114416926Y-122168306D01*
X114231749Y-122265114D01*
X114068902Y-122396046D01*
X113934588Y-122556115D01*
X113931624Y-122561507D01*
X113931621Y-122561511D01*
X113876559Y-122661669D01*
X113833923Y-122739224D01*
X113832062Y-122745091D01*
X113832061Y-122745093D01*
X113807455Y-122822661D01*
X113770741Y-122938398D01*
X113752500Y-123101020D01*
X113752500Y-123513576D01*
X107670506Y-123513576D01*
X107614725Y-123315794D01*
X107610603Y-123305055D01*
X107519549Y-123120417D01*
X107513538Y-123110608D01*
X107390360Y-122945651D01*
X107382671Y-122937111D01*
X107231490Y-122797361D01*
X107222365Y-122790360D01*
X107048255Y-122680505D01*
X107038008Y-122675284D01*
X106846793Y-122598997D01*
X106835767Y-122595730D01*
X106775770Y-122583797D01*
X106762894Y-122584949D01*
X106758000Y-122600102D01*
X106758000Y-123638885D01*
X106250000Y-123638885D01*
X106250000Y-122597337D01*
X106246194Y-122584375D01*
X106231278Y-122582439D01*
X106202202Y-122587435D01*
X106191082Y-122590415D01*
X105997940Y-122661669D01*
X105987562Y-122666619D01*
X105810639Y-122771877D01*
X105801327Y-122778643D01*
X105646547Y-122914381D01*
X105638630Y-122922724D01*
X105511180Y-123084394D01*
X105504909Y-123094050D01*
X105409060Y-123276229D01*
X105404655Y-123286863D01*
X105343607Y-123483470D01*
X105341215Y-123494724D01*
X105324137Y-123639012D01*
X102223157Y-123639012D01*
X102212703Y-123525246D01*
X102210606Y-123513932D01*
X102154725Y-123315794D01*
X102150603Y-123305055D01*
X102059549Y-123120417D01*
X102053538Y-123110608D01*
X101930360Y-122945651D01*
X101922671Y-122937111D01*
X101771490Y-122797361D01*
X101762365Y-122790360D01*
X101588255Y-122680505D01*
X101578008Y-122675284D01*
X101386793Y-122598997D01*
X101375767Y-122595730D01*
X101315770Y-122583797D01*
X101302894Y-122584949D01*
X101298000Y-122600102D01*
X101298000Y-123638885D01*
X100790000Y-123638885D01*
X100790000Y-122597337D01*
X100786194Y-122584375D01*
X100771278Y-122582439D01*
X100742202Y-122587435D01*
X100731082Y-122590415D01*
X100537940Y-122661669D01*
X100527562Y-122666619D01*
X100350639Y-122771877D01*
X100341327Y-122778643D01*
X100186547Y-122914381D01*
X100178630Y-122922724D01*
X100051180Y-123084394D01*
X100044909Y-123094050D01*
X99949060Y-123276229D01*
X99944655Y-123286863D01*
X99883607Y-123483470D01*
X99881215Y-123494724D01*
X99864137Y-123639012D01*
X75615136Y-123639012D01*
X75594251Y-123612897D01*
X75594250Y-123612895D01*
X75591399Y-123609331D01*
X75395154Y-123426009D01*
X75238633Y-123317426D01*
X75178254Y-123275539D01*
X75178249Y-123275536D01*
X75174501Y-123272936D01*
X75170416Y-123270904D01*
X75170413Y-123270902D01*
X74998560Y-123185407D01*
X74934062Y-123153320D01*
X74929728Y-123151899D01*
X74929725Y-123151898D01*
X74683207Y-123071085D01*
X74683202Y-123071084D01*
X74678874Y-123069665D01*
X74674382Y-123068885D01*
X74418064Y-123024380D01*
X74418056Y-123024379D01*
X74414283Y-123023724D01*
X74405622Y-123023293D01*
X74331004Y-123019578D01*
X74330996Y-123019578D01*
X74329433Y-123019500D01*
X74161777Y-123019500D01*
X74159509Y-123019665D01*
X74159497Y-123019665D01*
X74029177Y-123029121D01*
X73962154Y-123033984D01*
X73957699Y-123034968D01*
X73957696Y-123034968D01*
X73704380Y-123090895D01*
X73704376Y-123090896D01*
X73699920Y-123091880D01*
X73624598Y-123120417D01*
X73453059Y-123185407D01*
X73453056Y-123185408D01*
X73448789Y-123187025D01*
X73444798Y-123189242D01*
X73269048Y-123286863D01*
X73214024Y-123317426D01*
X73210392Y-123320198D01*
X73004167Y-123477583D01*
X73004163Y-123477587D01*
X73000542Y-123480350D01*
X72997357Y-123483608D01*
X72997356Y-123483609D01*
X72965065Y-123516641D01*
X72812815Y-123672386D01*
X72810130Y-123676075D01*
X72659676Y-123882776D01*
X72654775Y-123889509D01*
X72652651Y-123893547D01*
X72531860Y-124123132D01*
X72531857Y-124123138D01*
X72529735Y-124127172D01*
X72528215Y-124131477D01*
X72528213Y-124131481D01*
X72447607Y-124359740D01*
X72440312Y-124380397D01*
X72388380Y-124643878D01*
X72388153Y-124648431D01*
X72388153Y-124648434D01*
X72378992Y-124832474D01*
X72375028Y-124912095D01*
X71009858Y-124912095D01*
X71021394Y-121181589D01*
X100297803Y-121181589D01*
X100310527Y-121311361D01*
X100312910Y-121323396D01*
X100369317Y-121510223D01*
X100373992Y-121521565D01*
X100465612Y-121693879D01*
X100472399Y-121704095D01*
X100595747Y-121855335D01*
X100604391Y-121864039D01*
X100754760Y-121988436D01*
X100764931Y-121995297D01*
X100936607Y-122088121D01*
X100947907Y-122092871D01*
X101082693Y-122134595D01*
X101096795Y-122134801D01*
X101100000Y-122128045D01*
X101100000Y-122121047D01*
X101608000Y-122121047D01*
X101611973Y-122134578D01*
X101619768Y-122135698D01*
X101746342Y-122098446D01*
X101757710Y-122093853D01*
X101930666Y-122003434D01*
X101940928Y-121996718D01*
X102093020Y-121874432D01*
X102101786Y-121865848D01*
X102227236Y-121716344D01*
X102234160Y-121706233D01*
X102328184Y-121535202D01*
X102333012Y-121523938D01*
X102392025Y-121337905D01*
X102394573Y-121325916D01*
X102410762Y-121181589D01*
X105137803Y-121181589D01*
X105150527Y-121311361D01*
X105152910Y-121323396D01*
X105209317Y-121510223D01*
X105213992Y-121521565D01*
X105305612Y-121693879D01*
X105312399Y-121704095D01*
X105435747Y-121855335D01*
X105444391Y-121864039D01*
X105594760Y-121988436D01*
X105604931Y-121995297D01*
X105776607Y-122088121D01*
X105787907Y-122092871D01*
X105922693Y-122134595D01*
X105936795Y-122134801D01*
X105940000Y-122128045D01*
X105940000Y-122121047D01*
X106448000Y-122121047D01*
X106451973Y-122134578D01*
X106459768Y-122135698D01*
X106586342Y-122098446D01*
X106597710Y-122093853D01*
X106770666Y-122003434D01*
X106780928Y-121996718D01*
X106933020Y-121874432D01*
X106941786Y-121865848D01*
X107067236Y-121716344D01*
X107074160Y-121706233D01*
X107168184Y-121535202D01*
X107173012Y-121523938D01*
X107232025Y-121337905D01*
X107234573Y-121325916D01*
X107250980Y-121179643D01*
X107247525Y-121167876D01*
X107246135Y-121166671D01*
X107238452Y-121165000D01*
X106466115Y-121165000D01*
X106450876Y-121169475D01*
X106449671Y-121170865D01*
X106448000Y-121178548D01*
X106448000Y-122121047D01*
X105940000Y-122121047D01*
X105940000Y-121183115D01*
X105935525Y-121167876D01*
X105934135Y-121166671D01*
X105926452Y-121165000D01*
X105154291Y-121165000D01*
X105139864Y-121169236D01*
X105137803Y-121181589D01*
X102410762Y-121181589D01*
X102410980Y-121179643D01*
X102407525Y-121167876D01*
X102406135Y-121166671D01*
X102398452Y-121165000D01*
X101626115Y-121165000D01*
X101610876Y-121169475D01*
X101609671Y-121170865D01*
X101608000Y-121178548D01*
X101608000Y-122121047D01*
X101100000Y-122121047D01*
X101100000Y-121183115D01*
X101095525Y-121167876D01*
X101094135Y-121166671D01*
X101086452Y-121165000D01*
X100314291Y-121165000D01*
X100299864Y-121169236D01*
X100297803Y-121181589D01*
X71021394Y-121181589D01*
X71023061Y-120642357D01*
X100297020Y-120642357D01*
X100300475Y-120654124D01*
X100301865Y-120655329D01*
X100309548Y-120657000D01*
X101081885Y-120657000D01*
X101097124Y-120652525D01*
X101098329Y-120651135D01*
X101100000Y-120643452D01*
X101100000Y-120638885D01*
X101608000Y-120638885D01*
X101612475Y-120654124D01*
X101613865Y-120655329D01*
X101621548Y-120657000D01*
X102393709Y-120657000D01*
X102408136Y-120652764D01*
X102409872Y-120642357D01*
X105137020Y-120642357D01*
X105140475Y-120654124D01*
X105141865Y-120655329D01*
X105149548Y-120657000D01*
X105921885Y-120657000D01*
X105937124Y-120652525D01*
X105938329Y-120651135D01*
X105940000Y-120643452D01*
X105940000Y-120638885D01*
X106448000Y-120638885D01*
X106452475Y-120654124D01*
X106453865Y-120655329D01*
X106461548Y-120657000D01*
X107233709Y-120657000D01*
X107248136Y-120652764D01*
X107250197Y-120640411D01*
X107237473Y-120510639D01*
X107235090Y-120498604D01*
X107178683Y-120311777D01*
X107174008Y-120300435D01*
X107082388Y-120128121D01*
X107075601Y-120117905D01*
X106952253Y-119966665D01*
X106943609Y-119957961D01*
X106793237Y-119833562D01*
X106783069Y-119826703D01*
X106611393Y-119733879D01*
X106600093Y-119729129D01*
X106465307Y-119687405D01*
X106451205Y-119687199D01*
X106448000Y-119693955D01*
X106448000Y-120638885D01*
X105940000Y-120638885D01*
X105940000Y-119700953D01*
X105936027Y-119687422D01*
X105928232Y-119686302D01*
X105801658Y-119723554D01*
X105790290Y-119728147D01*
X105617334Y-119818566D01*
X105607072Y-119825282D01*
X105454980Y-119947568D01*
X105446214Y-119956152D01*
X105320764Y-120105656D01*
X105313840Y-120115767D01*
X105219816Y-120286798D01*
X105214988Y-120298062D01*
X105155975Y-120484095D01*
X105153427Y-120496084D01*
X105137020Y-120642357D01*
X102409872Y-120642357D01*
X102410197Y-120640411D01*
X102397473Y-120510639D01*
X102395090Y-120498604D01*
X102338683Y-120311777D01*
X102334008Y-120300435D01*
X102242388Y-120128121D01*
X102235601Y-120117905D01*
X102112253Y-119966665D01*
X102103609Y-119957961D01*
X101953237Y-119833562D01*
X101943069Y-119826703D01*
X101771393Y-119733879D01*
X101760093Y-119729129D01*
X101625307Y-119687405D01*
X101611205Y-119687199D01*
X101608000Y-119693955D01*
X101608000Y-120638885D01*
X101100000Y-120638885D01*
X101100000Y-119700953D01*
X101096027Y-119687422D01*
X101088232Y-119686302D01*
X100961658Y-119723554D01*
X100950290Y-119728147D01*
X100777334Y-119818566D01*
X100767072Y-119825282D01*
X100614980Y-119947568D01*
X100606214Y-119956152D01*
X100480764Y-120105656D01*
X100473840Y-120115767D01*
X100379816Y-120286798D01*
X100374988Y-120298062D01*
X100315975Y-120484095D01*
X100313427Y-120496084D01*
X100297020Y-120642357D01*
X71023061Y-120642357D01*
X71060745Y-108456040D01*
X107912501Y-108456040D01*
X107913665Y-108464942D01*
X107913665Y-108464945D01*
X107928068Y-108575089D01*
X107928069Y-108575093D01*
X107929233Y-108583994D01*
X107981205Y-108702110D01*
X107986982Y-108708983D01*
X107986983Y-108708984D01*
X108040171Y-108772259D01*
X108064239Y-108800891D01*
X108171660Y-108872396D01*
X108294833Y-108910878D01*
X108303803Y-108911042D01*
X108303807Y-108911043D01*
X108362542Y-108912119D01*
X108423855Y-108913243D01*
X108492823Y-108894440D01*
X118544901Y-108894440D01*
X118546065Y-108903342D01*
X118546065Y-108903345D01*
X118560468Y-109013489D01*
X118560469Y-109013493D01*
X118561633Y-109022394D01*
X118613605Y-109140510D01*
X118696639Y-109239291D01*
X118804060Y-109310796D01*
X118927233Y-109349278D01*
X118936203Y-109349442D01*
X118936207Y-109349443D01*
X118994942Y-109350519D01*
X119056255Y-109351643D01*
X119118505Y-109334672D01*
X119172092Y-109320062D01*
X119172093Y-109320062D01*
X119180755Y-109317700D01*
X119188405Y-109313003D01*
X119188407Y-109313002D01*
X119283072Y-109254878D01*
X119283075Y-109254875D01*
X119290724Y-109250179D01*
X119296750Y-109243522D01*
X119371300Y-109161161D01*
X119371303Y-109161157D01*
X119377322Y-109154507D01*
X119433588Y-109038375D01*
X119454997Y-108911120D01*
X119455133Y-108900000D01*
X119441546Y-108805125D01*
X119438112Y-108781145D01*
X119438111Y-108781142D01*
X119436839Y-108772259D01*
X119431711Y-108760979D01*
X119387144Y-108662961D01*
X119383428Y-108654788D01*
X119358046Y-108625330D01*
X119328733Y-108560671D01*
X119327500Y-108543085D01*
X119327500Y-107722392D01*
X119347502Y-107654271D01*
X119401158Y-107607778D01*
X119471432Y-107597674D01*
X119536012Y-107627168D01*
X119556711Y-107650118D01*
X119570373Y-107669629D01*
X119576275Y-107678894D01*
X119595250Y-107711760D01*
X119603695Y-107718846D01*
X119624322Y-107736154D01*
X119632427Y-107743581D01*
X119720663Y-107831818D01*
X119754688Y-107894130D01*
X119756503Y-107904575D01*
X119763831Y-107960611D01*
X119765633Y-107974394D01*
X119796116Y-108043672D01*
X119813553Y-108083300D01*
X119817605Y-108092510D01*
X119823382Y-108099383D01*
X119823383Y-108099384D01*
X119862949Y-108146453D01*
X119900639Y-108191291D01*
X119908116Y-108196268D01*
X119995608Y-108254507D01*
X120008060Y-108262796D01*
X120131233Y-108301278D01*
X120140203Y-108301442D01*
X120140207Y-108301443D01*
X120198942Y-108302519D01*
X120260255Y-108303643D01*
X120365719Y-108274890D01*
X120376092Y-108272062D01*
X120376093Y-108272062D01*
X120384755Y-108269700D01*
X120392405Y-108265003D01*
X120392407Y-108265002D01*
X120487072Y-108206878D01*
X120487075Y-108206875D01*
X120494724Y-108202179D01*
X120500750Y-108195522D01*
X120575300Y-108113161D01*
X120575303Y-108113157D01*
X120581322Y-108106507D01*
X120635619Y-107994440D01*
X128819901Y-107994440D01*
X128821065Y-108003342D01*
X128821065Y-108003345D01*
X128835468Y-108113489D01*
X128835469Y-108113493D01*
X128836633Y-108122394D01*
X128888605Y-108240510D01*
X128894382Y-108247383D01*
X128894383Y-108247384D01*
X128956451Y-108321223D01*
X128984972Y-108386239D01*
X128986000Y-108402298D01*
X128986000Y-111353706D01*
X128985520Y-111364689D01*
X128982213Y-111402484D01*
X128985066Y-111413131D01*
X128992034Y-111439135D01*
X128994413Y-111449867D01*
X129001003Y-111487239D01*
X129006514Y-111496785D01*
X129007740Y-111500153D01*
X129009254Y-111503399D01*
X129012106Y-111514043D01*
X129033877Y-111545135D01*
X129039775Y-111554394D01*
X129058750Y-111587260D01*
X129067195Y-111594346D01*
X129087822Y-111611654D01*
X129095926Y-111619081D01*
X129118662Y-111641817D01*
X129152688Y-111704129D01*
X129154502Y-111714572D01*
X129163633Y-111784394D01*
X129215605Y-111902510D01*
X129298639Y-112001291D01*
X129406060Y-112072796D01*
X129529233Y-112111278D01*
X129538203Y-112111442D01*
X129538207Y-112111443D01*
X129596942Y-112112519D01*
X129658255Y-112113643D01*
X129720505Y-112096672D01*
X129774092Y-112082062D01*
X129774093Y-112082062D01*
X129782755Y-112079700D01*
X129790405Y-112075003D01*
X129790407Y-112075002D01*
X129885072Y-112016878D01*
X129885075Y-112016875D01*
X129892724Y-112012179D01*
X129898750Y-112005522D01*
X129973300Y-111923161D01*
X129973303Y-111923157D01*
X129979322Y-111916507D01*
X130035588Y-111800375D01*
X130056997Y-111673120D01*
X130057133Y-111662000D01*
X130047444Y-111594346D01*
X130040112Y-111543145D01*
X130040111Y-111543142D01*
X130038839Y-111534259D01*
X130033752Y-111523070D01*
X129989145Y-111424962D01*
X129989143Y-111424959D01*
X129985428Y-111416788D01*
X129935810Y-111359203D01*
X129907051Y-111325826D01*
X129907049Y-111325824D01*
X129901193Y-111319028D01*
X129792906Y-111248841D01*
X129784311Y-111246271D01*
X129784310Y-111246270D01*
X129730897Y-111230296D01*
X129671364Y-111191614D01*
X129642194Y-111126886D01*
X129641000Y-111109579D01*
X129641000Y-108306792D01*
X129653608Y-108251854D01*
X129704674Y-108146453D01*
X129708588Y-108138375D01*
X129711389Y-108121729D01*
X129729190Y-108015917D01*
X129729997Y-108011120D01*
X129730133Y-108000000D01*
X129716467Y-107904575D01*
X129713112Y-107881145D01*
X129713111Y-107881142D01*
X129711839Y-107872259D01*
X129658428Y-107754788D01*
X129593034Y-107678894D01*
X129580051Y-107663826D01*
X129580049Y-107663824D01*
X129574193Y-107657028D01*
X129465906Y-107586841D01*
X129457311Y-107584271D01*
X129457310Y-107584270D01*
X129350874Y-107552438D01*
X129350872Y-107552438D01*
X129342273Y-107549866D01*
X129333298Y-107549811D01*
X129333297Y-107549811D01*
X129278641Y-107549477D01*
X129213231Y-107549078D01*
X129201475Y-107552438D01*
X129097786Y-107582072D01*
X129097784Y-107582073D01*
X129089155Y-107584539D01*
X128980019Y-107653399D01*
X128974076Y-107660128D01*
X128974075Y-107660129D01*
X128936910Y-107702211D01*
X128894596Y-107750122D01*
X128890782Y-107758245D01*
X128890781Y-107758247D01*
X128864794Y-107813598D01*
X128839754Y-107866932D01*
X128833893Y-107904575D01*
X128821282Y-107985567D01*
X128821282Y-107985571D01*
X128819901Y-107994440D01*
X120635619Y-107994440D01*
X120637588Y-107990375D01*
X120642154Y-107963238D01*
X120658190Y-107867917D01*
X120658997Y-107863120D01*
X120659133Y-107852000D01*
X120646382Y-107762962D01*
X120642112Y-107733145D01*
X120642111Y-107733142D01*
X120640839Y-107724259D01*
X120635156Y-107711760D01*
X120591145Y-107614962D01*
X120591143Y-107614959D01*
X120587428Y-107606788D01*
X120503193Y-107509028D01*
X120394906Y-107438841D01*
X120386311Y-107436271D01*
X120386310Y-107436270D01*
X120271273Y-107401866D01*
X120272057Y-107399244D01*
X120220467Y-107375340D01*
X120182411Y-107315405D01*
X120177500Y-107280570D01*
X120177500Y-106525038D01*
X125593401Y-106525038D01*
X125594565Y-106533940D01*
X125594565Y-106533943D01*
X125608968Y-106644087D01*
X125608969Y-106644091D01*
X125610133Y-106652992D01*
X125613750Y-106661212D01*
X125655676Y-106756496D01*
X125662105Y-106771108D01*
X125745139Y-106869889D01*
X125852560Y-106941394D01*
X125975733Y-106979876D01*
X125984703Y-106980040D01*
X125984707Y-106980041D01*
X126043442Y-106981117D01*
X126104755Y-106982241D01*
X126167005Y-106965269D01*
X126220592Y-106950660D01*
X126220593Y-106950660D01*
X126229255Y-106948298D01*
X126236905Y-106943601D01*
X126236907Y-106943600D01*
X126331572Y-106885476D01*
X126331575Y-106885473D01*
X126339224Y-106880777D01*
X126345250Y-106874120D01*
X126419800Y-106791759D01*
X126419803Y-106791755D01*
X126425822Y-106785105D01*
X126482088Y-106668973D01*
X126488260Y-106632290D01*
X126502690Y-106546515D01*
X126503497Y-106541718D01*
X126503633Y-106530598D01*
X126485339Y-106402857D01*
X126431928Y-106285386D01*
X126406546Y-106255928D01*
X126377233Y-106191269D01*
X126376000Y-106173683D01*
X126376000Y-105092507D01*
X126396002Y-105024386D01*
X126449658Y-104977893D01*
X126468853Y-104970945D01*
X126472093Y-104970062D01*
X126472096Y-104970061D01*
X126480755Y-104967700D01*
X126488405Y-104963003D01*
X126488407Y-104963002D01*
X126583072Y-104904878D01*
X126583075Y-104904875D01*
X126590724Y-104900179D01*
X126596750Y-104893522D01*
X126671300Y-104811161D01*
X126671303Y-104811157D01*
X126677322Y-104804507D01*
X126733588Y-104688375D01*
X126739720Y-104651930D01*
X126754190Y-104565917D01*
X126754997Y-104561120D01*
X126755133Y-104550000D01*
X126743347Y-104467700D01*
X126738112Y-104431145D01*
X126738111Y-104431142D01*
X126736839Y-104422259D01*
X126730724Y-104408809D01*
X126687145Y-104312962D01*
X126687143Y-104312959D01*
X126683428Y-104304788D01*
X126599193Y-104207028D01*
X126490906Y-104136841D01*
X126482311Y-104134271D01*
X126482310Y-104134270D01*
X126375874Y-104102438D01*
X126375872Y-104102438D01*
X126367273Y-104099866D01*
X126358298Y-104099811D01*
X126358297Y-104099811D01*
X126303641Y-104099477D01*
X126238231Y-104099078D01*
X126226475Y-104102438D01*
X126122786Y-104132072D01*
X126122784Y-104132073D01*
X126114155Y-104134539D01*
X126005019Y-104203399D01*
X125919596Y-104300122D01*
X125915782Y-104308245D01*
X125915781Y-104308247D01*
X125889794Y-104363598D01*
X125864754Y-104416932D01*
X125863374Y-104425796D01*
X125863373Y-104425799D01*
X125856976Y-104466887D01*
X125852350Y-104496601D01*
X125852110Y-104498141D01*
X125821866Y-104562374D01*
X125808599Y-104575280D01*
X125802196Y-104580652D01*
X125802193Y-104580655D01*
X125793750Y-104587740D01*
X125788237Y-104597289D01*
X125774775Y-104620606D01*
X125768877Y-104629865D01*
X125747106Y-104660957D01*
X125744254Y-104671601D01*
X125742740Y-104674847D01*
X125741514Y-104678215D01*
X125736003Y-104687761D01*
X125734089Y-104698617D01*
X125729413Y-104725133D01*
X125727036Y-104735856D01*
X125717213Y-104772516D01*
X125718174Y-104783499D01*
X125720520Y-104810311D01*
X125721000Y-104821294D01*
X125721000Y-106173144D01*
X125700998Y-106241265D01*
X125689442Y-106256551D01*
X125668096Y-106280720D01*
X125613254Y-106397530D01*
X125611874Y-106406396D01*
X125594782Y-106516165D01*
X125594782Y-106516169D01*
X125593401Y-106525038D01*
X120177500Y-106525038D01*
X120177500Y-106008106D01*
X120197502Y-105939985D01*
X120210085Y-105923550D01*
X120221296Y-105911164D01*
X120227322Y-105904507D01*
X120283588Y-105788375D01*
X120304997Y-105661120D01*
X120305133Y-105650000D01*
X120286839Y-105522259D01*
X120233428Y-105404788D01*
X120149193Y-105307028D01*
X120040906Y-105236841D01*
X120032311Y-105234271D01*
X120032310Y-105234270D01*
X119925874Y-105202438D01*
X119925872Y-105202438D01*
X119917273Y-105199866D01*
X119908298Y-105199811D01*
X119908297Y-105199811D01*
X119853641Y-105199477D01*
X119788231Y-105199078D01*
X119776475Y-105202438D01*
X119672786Y-105232072D01*
X119672784Y-105232073D01*
X119664155Y-105234539D01*
X119555019Y-105303399D01*
X119469596Y-105400122D01*
X119465782Y-105408245D01*
X119465781Y-105408247D01*
X119439794Y-105463598D01*
X119414754Y-105516932D01*
X119413374Y-105525798D01*
X119396282Y-105635567D01*
X119396282Y-105635571D01*
X119394901Y-105644440D01*
X119396065Y-105653342D01*
X119396065Y-105653345D01*
X119410468Y-105763489D01*
X119410469Y-105763493D01*
X119411633Y-105772394D01*
X119415250Y-105780614D01*
X119462025Y-105886919D01*
X119471153Y-105957327D01*
X119440766Y-106021492D01*
X119380512Y-106059042D01*
X119309523Y-106058057D01*
X119278164Y-106043398D01*
X119190906Y-105986841D01*
X119182311Y-105984271D01*
X119182310Y-105984270D01*
X119075874Y-105952438D01*
X119075872Y-105952438D01*
X119067273Y-105949866D01*
X119058298Y-105949811D01*
X119058297Y-105949811D01*
X119003641Y-105949477D01*
X118938231Y-105949078D01*
X118876193Y-105966808D01*
X118822786Y-105982072D01*
X118822784Y-105982073D01*
X118814155Y-105984539D01*
X118806565Y-105989328D01*
X118720870Y-106043398D01*
X118705019Y-106053399D01*
X118619596Y-106150122D01*
X118615782Y-106158245D01*
X118615781Y-106158247D01*
X118589794Y-106213598D01*
X118564754Y-106266932D01*
X118561881Y-106285386D01*
X118546282Y-106385567D01*
X118546282Y-106385571D01*
X118544901Y-106394440D01*
X118546065Y-106403342D01*
X118546065Y-106403345D01*
X118560468Y-106513489D01*
X118560469Y-106513493D01*
X118561633Y-106522394D01*
X118613605Y-106640510D01*
X118642952Y-106675423D01*
X118671472Y-106740436D01*
X118672500Y-106756496D01*
X118672500Y-108542546D01*
X118652498Y-108610667D01*
X118640942Y-108625953D01*
X118619596Y-108650122D01*
X118615782Y-108658245D01*
X118615781Y-108658247D01*
X118599047Y-108693890D01*
X118564754Y-108766932D01*
X118558692Y-108805868D01*
X118546282Y-108885567D01*
X118546282Y-108885571D01*
X118544901Y-108894440D01*
X108492823Y-108894440D01*
X108539692Y-108881662D01*
X108539693Y-108881662D01*
X108548355Y-108879300D01*
X108556005Y-108874603D01*
X108556007Y-108874602D01*
X108650672Y-108816478D01*
X108650675Y-108816475D01*
X108658324Y-108811779D01*
X108687322Y-108779743D01*
X108747864Y-108742663D01*
X108780735Y-108738300D01*
X110142024Y-108738300D01*
X110211842Y-108759412D01*
X110305260Y-108821596D01*
X110428433Y-108860078D01*
X110437403Y-108860242D01*
X110437407Y-108860243D01*
X110496142Y-108861319D01*
X110557455Y-108862443D01*
X110619705Y-108845472D01*
X110673292Y-108830862D01*
X110673293Y-108830862D01*
X110681955Y-108828500D01*
X110689605Y-108823803D01*
X110689607Y-108823802D01*
X110784272Y-108765678D01*
X110784275Y-108765675D01*
X110791924Y-108760979D01*
X110797950Y-108754322D01*
X110872500Y-108671961D01*
X110872503Y-108671957D01*
X110878522Y-108665307D01*
X110934788Y-108549175D01*
X110956197Y-108421920D01*
X110956333Y-108410800D01*
X110940987Y-108303643D01*
X110939312Y-108291945D01*
X110939311Y-108291942D01*
X110938039Y-108283059D01*
X110914956Y-108232290D01*
X110888345Y-108173762D01*
X110888343Y-108173759D01*
X110884628Y-108165588D01*
X110833721Y-108106507D01*
X110806251Y-108074626D01*
X110806249Y-108074624D01*
X110800393Y-108067828D01*
X110692106Y-107997641D01*
X110683511Y-107995071D01*
X110683510Y-107995070D01*
X110577074Y-107963238D01*
X110577072Y-107963238D01*
X110568473Y-107960666D01*
X110559498Y-107960611D01*
X110559497Y-107960611D01*
X110504841Y-107960277D01*
X110439431Y-107959878D01*
X110377393Y-107977608D01*
X110323986Y-107992872D01*
X110323984Y-107992873D01*
X110315355Y-107995339D01*
X110307765Y-108000128D01*
X110206753Y-108063862D01*
X110139517Y-108083300D01*
X108649550Y-108083300D01*
X108581020Y-108063034D01*
X108558506Y-108048441D01*
X108542560Y-108043672D01*
X108443474Y-108014038D01*
X108443472Y-108014038D01*
X108434873Y-108011466D01*
X108425898Y-108011411D01*
X108425897Y-108011411D01*
X108371241Y-108011077D01*
X108305831Y-108010678D01*
X108243793Y-108028408D01*
X108190386Y-108043672D01*
X108190384Y-108043673D01*
X108181755Y-108046139D01*
X108174165Y-108050928D01*
X108121290Y-108084290D01*
X108072619Y-108114999D01*
X107987196Y-108211722D01*
X107983382Y-108219845D01*
X107983381Y-108219847D01*
X107965553Y-108257821D01*
X107932354Y-108328532D01*
X107923369Y-108386239D01*
X107913882Y-108447167D01*
X107913882Y-108447171D01*
X107912501Y-108456040D01*
X71060745Y-108456040D01*
X71074387Y-104044440D01*
X97142901Y-104044440D01*
X97144065Y-104053342D01*
X97144065Y-104053345D01*
X97158468Y-104163489D01*
X97158469Y-104163493D01*
X97159633Y-104172394D01*
X97211605Y-104290510D01*
X97294639Y-104389291D01*
X97402060Y-104460796D01*
X97525233Y-104499278D01*
X97534203Y-104499442D01*
X97534207Y-104499443D01*
X97592942Y-104500519D01*
X97654255Y-104501643D01*
X97716505Y-104484671D01*
X97770092Y-104470062D01*
X97770093Y-104470062D01*
X97778755Y-104467700D01*
X97786405Y-104463003D01*
X97786407Y-104463002D01*
X97881072Y-104404878D01*
X97881075Y-104404875D01*
X97888724Y-104400179D01*
X97894750Y-104393522D01*
X97969300Y-104311161D01*
X97969303Y-104311157D01*
X97975322Y-104304507D01*
X98031588Y-104188375D01*
X98040691Y-104134270D01*
X98052190Y-104065917D01*
X98052997Y-104061120D01*
X98053133Y-104050000D01*
X98034839Y-103922259D01*
X98018796Y-103886973D01*
X97985144Y-103812961D01*
X97981428Y-103804788D01*
X97956046Y-103775330D01*
X97926733Y-103710671D01*
X97925500Y-103693085D01*
X97925500Y-102368106D01*
X97945502Y-102299985D01*
X97958085Y-102283550D01*
X97969296Y-102271164D01*
X97975322Y-102264507D01*
X98031588Y-102148375D01*
X98052997Y-102021120D01*
X98053133Y-102010000D01*
X98052337Y-102004440D01*
X99244901Y-102004440D01*
X99246065Y-102013342D01*
X99246065Y-102013345D01*
X99260468Y-102123489D01*
X99260469Y-102123493D01*
X99261633Y-102132394D01*
X99313605Y-102250510D01*
X99342952Y-102285423D01*
X99371472Y-102350436D01*
X99372500Y-102366496D01*
X99372500Y-103269706D01*
X99372020Y-103280689D01*
X99368713Y-103318484D01*
X99378403Y-103354645D01*
X99378534Y-103355135D01*
X99380913Y-103365867D01*
X99387503Y-103403239D01*
X99393014Y-103412785D01*
X99394240Y-103416153D01*
X99395754Y-103419398D01*
X99398606Y-103430043D01*
X99404929Y-103439073D01*
X99412046Y-103449237D01*
X99433770Y-103505171D01*
X99445633Y-103595894D01*
X99497605Y-103714010D01*
X99503382Y-103720883D01*
X99503383Y-103720884D01*
X99573912Y-103804788D01*
X99580639Y-103812791D01*
X99688060Y-103884296D01*
X99811233Y-103922778D01*
X99820203Y-103922942D01*
X99820207Y-103922943D01*
X99878942Y-103924019D01*
X99940255Y-103925143D01*
X100002505Y-103908172D01*
X100056092Y-103893562D01*
X100056093Y-103893562D01*
X100064755Y-103891200D01*
X100072405Y-103886503D01*
X100072407Y-103886502D01*
X100167072Y-103828378D01*
X100167075Y-103828375D01*
X100174724Y-103823679D01*
X100180750Y-103817022D01*
X100255300Y-103734661D01*
X100255303Y-103734657D01*
X100261322Y-103728007D01*
X100317588Y-103611875D01*
X100338997Y-103484620D01*
X100339133Y-103473500D01*
X100320839Y-103345759D01*
X100303443Y-103307499D01*
X100271145Y-103236462D01*
X100271143Y-103236459D01*
X100267428Y-103228288D01*
X100183193Y-103130528D01*
X100175666Y-103125649D01*
X100175661Y-103125645D01*
X100084969Y-103066863D01*
X100038684Y-103013027D01*
X100027500Y-102961130D01*
X100027500Y-102368106D01*
X100047502Y-102299985D01*
X100060085Y-102283550D01*
X100071296Y-102271164D01*
X100077322Y-102264507D01*
X100133588Y-102148375D01*
X100154997Y-102021120D01*
X100155133Y-102010000D01*
X100136839Y-101882259D01*
X100083428Y-101764788D01*
X99999193Y-101667028D01*
X99890906Y-101596841D01*
X99882311Y-101594271D01*
X99882310Y-101594270D01*
X99775874Y-101562438D01*
X99775872Y-101562438D01*
X99767273Y-101559866D01*
X99758298Y-101559811D01*
X99758297Y-101559811D01*
X99703641Y-101559477D01*
X99638231Y-101559078D01*
X99626475Y-101562438D01*
X99522786Y-101592072D01*
X99522784Y-101592073D01*
X99514155Y-101594539D01*
X99405019Y-101663399D01*
X99319596Y-101760122D01*
X99315782Y-101768245D01*
X99315781Y-101768247D01*
X99289794Y-101823598D01*
X99264754Y-101876932D01*
X99263374Y-101885798D01*
X99246282Y-101995567D01*
X99246282Y-101995571D01*
X99244901Y-102004440D01*
X98052337Y-102004440D01*
X98034839Y-101882259D01*
X97981428Y-101764788D01*
X97897193Y-101667028D01*
X97788906Y-101596841D01*
X97780311Y-101594271D01*
X97780310Y-101594270D01*
X97673874Y-101562438D01*
X97673872Y-101562438D01*
X97665273Y-101559866D01*
X97656298Y-101559811D01*
X97656297Y-101559811D01*
X97601641Y-101559477D01*
X97536231Y-101559078D01*
X97524475Y-101562438D01*
X97420786Y-101592072D01*
X97420784Y-101592073D01*
X97412155Y-101594539D01*
X97303019Y-101663399D01*
X97217596Y-101760122D01*
X97213782Y-101768245D01*
X97213781Y-101768247D01*
X97187794Y-101823598D01*
X97162754Y-101876932D01*
X97161374Y-101885798D01*
X97144282Y-101995567D01*
X97144282Y-101995571D01*
X97142901Y-102004440D01*
X97144065Y-102013342D01*
X97144065Y-102013345D01*
X97158468Y-102123489D01*
X97158469Y-102123493D01*
X97159633Y-102132394D01*
X97211605Y-102250510D01*
X97240952Y-102285423D01*
X97269472Y-102350436D01*
X97270500Y-102366496D01*
X97270500Y-103692546D01*
X97250498Y-103760667D01*
X97238942Y-103775953D01*
X97217596Y-103800122D01*
X97162754Y-103916932D01*
X97161374Y-103925798D01*
X97144282Y-104035567D01*
X97144282Y-104035571D01*
X97142901Y-104044440D01*
X71074387Y-104044440D01*
X71094328Y-97595940D01*
X118224901Y-97595940D01*
X118226065Y-97604842D01*
X118226065Y-97604845D01*
X118240468Y-97714989D01*
X118240469Y-97714993D01*
X118241633Y-97723894D01*
X118245250Y-97732114D01*
X118271987Y-97792878D01*
X118293605Y-97842010D01*
X118299382Y-97848883D01*
X118299383Y-97848884D01*
X118366728Y-97929000D01*
X118376639Y-97940791D01*
X118484060Y-98012296D01*
X118607233Y-98050778D01*
X118616203Y-98050942D01*
X118616207Y-98050943D01*
X118674942Y-98052019D01*
X118736255Y-98053143D01*
X118798505Y-98036171D01*
X118852092Y-98021562D01*
X118852093Y-98021562D01*
X118860755Y-98019200D01*
X118868405Y-98014503D01*
X118868407Y-98014502D01*
X118970724Y-97951679D01*
X118971794Y-97953421D01*
X119026238Y-97929932D01*
X119041535Y-97929000D01*
X129016706Y-97929000D01*
X129027689Y-97929480D01*
X129054499Y-97931826D01*
X129054500Y-97931826D01*
X129065484Y-97932787D01*
X129102144Y-97922964D01*
X129112867Y-97920587D01*
X129115190Y-97920177D01*
X129150239Y-97913997D01*
X129159788Y-97908484D01*
X129163159Y-97907257D01*
X129166397Y-97905747D01*
X129177043Y-97902894D01*
X129181139Y-97900026D01*
X129232165Y-97889201D01*
X129256255Y-97889643D01*
X129318505Y-97872672D01*
X129372092Y-97858062D01*
X129372093Y-97858062D01*
X129380755Y-97855700D01*
X129388405Y-97851003D01*
X129388407Y-97851002D01*
X129483072Y-97792878D01*
X129483075Y-97792875D01*
X129490724Y-97788179D01*
X129541472Y-97732114D01*
X129571300Y-97699161D01*
X129571303Y-97699157D01*
X129577322Y-97692507D01*
X129633588Y-97576375D01*
X129654997Y-97449120D01*
X129655133Y-97438000D01*
X129636839Y-97310259D01*
X129616493Y-97265510D01*
X129587145Y-97200962D01*
X129587143Y-97200959D01*
X129583428Y-97192788D01*
X129499193Y-97095028D01*
X129390906Y-97024841D01*
X129382311Y-97022271D01*
X129382310Y-97022270D01*
X129275874Y-96990438D01*
X129275872Y-96990438D01*
X129267273Y-96987866D01*
X129258298Y-96987811D01*
X129258297Y-96987811D01*
X129203641Y-96987477D01*
X129138231Y-96987078D01*
X129126475Y-96990438D01*
X129022786Y-97020072D01*
X129022784Y-97020073D01*
X129014155Y-97022539D01*
X128905019Y-97091399D01*
X128819596Y-97188122D01*
X128815782Y-97196245D01*
X128815781Y-97196247D01*
X128813292Y-97201549D01*
X128766235Y-97254711D01*
X128699237Y-97274000D01*
X128513945Y-97274000D01*
X128445824Y-97253998D01*
X128399331Y-97200342D01*
X128389691Y-97127097D01*
X128404997Y-97036120D01*
X128405133Y-97025000D01*
X128386839Y-96897259D01*
X128333428Y-96779788D01*
X128307625Y-96749842D01*
X128255051Y-96688826D01*
X128255049Y-96688824D01*
X128249193Y-96682028D01*
X128140906Y-96611841D01*
X128132311Y-96609271D01*
X128132310Y-96609270D01*
X128025874Y-96577438D01*
X128025872Y-96577438D01*
X128017273Y-96574866D01*
X128008298Y-96574811D01*
X128008297Y-96574811D01*
X127953641Y-96574477D01*
X127888231Y-96574078D01*
X127876475Y-96577438D01*
X127772786Y-96607072D01*
X127772784Y-96607073D01*
X127764155Y-96609539D01*
X127756565Y-96614328D01*
X127655553Y-96678062D01*
X127588317Y-96697500D01*
X119960327Y-96697500D01*
X119891795Y-96677233D01*
X119886202Y-96673608D01*
X119790906Y-96611841D01*
X119782311Y-96609271D01*
X119782310Y-96609270D01*
X119675874Y-96577438D01*
X119675872Y-96577438D01*
X119667273Y-96574866D01*
X119658298Y-96574811D01*
X119658297Y-96574811D01*
X119603641Y-96574477D01*
X119538231Y-96574078D01*
X119526475Y-96577438D01*
X119422786Y-96607072D01*
X119422784Y-96607073D01*
X119414155Y-96609539D01*
X119305019Y-96678399D01*
X119299076Y-96685128D01*
X119299075Y-96685129D01*
X119231351Y-96761812D01*
X119219596Y-96775122D01*
X119215782Y-96783245D01*
X119215781Y-96783247D01*
X119189794Y-96838598D01*
X119164754Y-96891932D01*
X119163374Y-96900798D01*
X119146282Y-97010567D01*
X119146282Y-97010571D01*
X119144901Y-97019440D01*
X119146065Y-97028342D01*
X119146065Y-97028345D01*
X119159049Y-97127635D01*
X119148049Y-97197774D01*
X119100874Y-97250831D01*
X119032504Y-97269962D01*
X118965582Y-97249705D01*
X118878438Y-97193222D01*
X118878433Y-97193220D01*
X118870906Y-97188341D01*
X118862311Y-97185771D01*
X118862310Y-97185770D01*
X118755874Y-97153938D01*
X118755872Y-97153938D01*
X118747273Y-97151366D01*
X118738298Y-97151311D01*
X118738297Y-97151311D01*
X118683641Y-97150977D01*
X118618231Y-97150578D01*
X118606475Y-97153938D01*
X118502786Y-97183572D01*
X118502784Y-97183573D01*
X118494155Y-97186039D01*
X118385019Y-97254899D01*
X118379076Y-97261628D01*
X118379075Y-97261629D01*
X118343341Y-97302090D01*
X118299596Y-97351622D01*
X118244754Y-97468432D01*
X118243374Y-97477298D01*
X118226282Y-97587067D01*
X118226282Y-97587071D01*
X118224901Y-97595940D01*
X71094328Y-97595940D01*
X71116826Y-90320440D01*
X108318901Y-90320440D01*
X108320065Y-90329342D01*
X108320065Y-90329345D01*
X108334468Y-90439489D01*
X108334469Y-90439493D01*
X108335633Y-90448394D01*
X108387605Y-90566510D01*
X108470639Y-90665291D01*
X108578060Y-90736796D01*
X108701233Y-90775278D01*
X108710203Y-90775442D01*
X108710207Y-90775443D01*
X108768942Y-90776519D01*
X108830255Y-90777643D01*
X108892505Y-90760672D01*
X108946092Y-90746062D01*
X108946093Y-90746062D01*
X108954755Y-90743700D01*
X108962405Y-90739003D01*
X108962407Y-90739002D01*
X109057072Y-90680878D01*
X109057075Y-90680875D01*
X109064724Y-90676179D01*
X109070750Y-90669522D01*
X109145300Y-90587161D01*
X109145303Y-90587157D01*
X109151322Y-90580507D01*
X109207588Y-90464375D01*
X109228997Y-90337120D01*
X109229133Y-90326000D01*
X109210839Y-90198259D01*
X109157428Y-90080788D01*
X109132046Y-90051330D01*
X109102733Y-89986671D01*
X109101500Y-89969085D01*
X109101500Y-87890106D01*
X109121502Y-87821985D01*
X109134085Y-87805550D01*
X109145296Y-87793164D01*
X109151322Y-87786507D01*
X109207588Y-87670375D01*
X109228997Y-87543120D01*
X109229133Y-87532000D01*
X109210839Y-87404259D01*
X109157428Y-87286788D01*
X109073193Y-87189028D01*
X108964906Y-87118841D01*
X108956311Y-87116271D01*
X108956310Y-87116270D01*
X108849874Y-87084438D01*
X108849872Y-87084438D01*
X108841273Y-87081866D01*
X108832298Y-87081811D01*
X108832297Y-87081811D01*
X108777641Y-87081477D01*
X108712231Y-87081078D01*
X108700475Y-87084438D01*
X108596786Y-87114072D01*
X108596784Y-87114073D01*
X108588155Y-87116539D01*
X108479019Y-87185399D01*
X108393596Y-87282122D01*
X108389782Y-87290245D01*
X108389781Y-87290247D01*
X108363794Y-87345598D01*
X108338754Y-87398932D01*
X108337374Y-87407798D01*
X108320282Y-87517567D01*
X108320282Y-87517571D01*
X108318901Y-87526440D01*
X108320065Y-87535342D01*
X108320065Y-87535345D01*
X108334468Y-87645489D01*
X108334469Y-87645493D01*
X108335633Y-87654394D01*
X108387605Y-87772510D01*
X108416952Y-87807423D01*
X108445472Y-87872436D01*
X108446500Y-87888496D01*
X108446500Y-89968546D01*
X108426498Y-90036667D01*
X108414942Y-90051953D01*
X108393596Y-90076122D01*
X108338754Y-90192932D01*
X108337374Y-90201798D01*
X108320282Y-90311567D01*
X108320282Y-90311571D01*
X108318901Y-90320440D01*
X71116826Y-90320440D01*
X71168910Y-73477095D01*
X73645028Y-73477095D01*
X73670534Y-73744431D01*
X73734364Y-74005285D01*
X73835182Y-74254192D01*
X73970875Y-74485938D01*
X73973728Y-74489505D01*
X74085225Y-74628925D01*
X74138601Y-74695669D01*
X74334846Y-74878991D01*
X74427039Y-74942948D01*
X74551746Y-75029461D01*
X74551751Y-75029464D01*
X74555499Y-75032064D01*
X74559584Y-75034096D01*
X74559587Y-75034098D01*
X74675719Y-75091872D01*
X74795938Y-75151680D01*
X74800272Y-75153101D01*
X74800275Y-75153102D01*
X75046793Y-75233915D01*
X75046798Y-75233916D01*
X75051126Y-75235335D01*
X75055617Y-75236115D01*
X75055618Y-75236115D01*
X75311936Y-75280620D01*
X75311944Y-75280621D01*
X75315717Y-75281276D01*
X75319554Y-75281467D01*
X75398996Y-75285422D01*
X75399004Y-75285422D01*
X75400567Y-75285500D01*
X75568223Y-75285500D01*
X75570491Y-75285335D01*
X75570503Y-75285335D01*
X75700823Y-75275879D01*
X75767846Y-75271016D01*
X75772301Y-75270032D01*
X75772304Y-75270032D01*
X76025620Y-75214105D01*
X76025624Y-75214104D01*
X76030080Y-75213120D01*
X76197617Y-75149646D01*
X76276941Y-75119593D01*
X76276944Y-75119592D01*
X76281211Y-75117975D01*
X76515976Y-74987574D01*
X76658254Y-74878991D01*
X76725833Y-74827417D01*
X76725837Y-74827413D01*
X76729458Y-74824650D01*
X76917185Y-74632614D01*
X77075225Y-74415491D01*
X77162313Y-74249963D01*
X77198140Y-74181868D01*
X77198143Y-74181862D01*
X77200265Y-74177828D01*
X77259703Y-74009515D01*
X77288165Y-73928916D01*
X77288165Y-73928915D01*
X77289688Y-73924603D01*
X77341620Y-73661122D01*
X77341847Y-73656566D01*
X77354745Y-73397474D01*
X77354745Y-73397468D01*
X77354972Y-73392905D01*
X77329466Y-73125569D01*
X77265636Y-72864715D01*
X77164818Y-72615808D01*
X77029125Y-72384062D01*
X76918211Y-72245371D01*
X76864251Y-72177897D01*
X76864250Y-72177895D01*
X76861399Y-72174331D01*
X76665154Y-71991009D01*
X76505436Y-71880208D01*
X76448254Y-71840539D01*
X76448249Y-71840536D01*
X76444501Y-71837936D01*
X76440416Y-71835904D01*
X76440413Y-71835902D01*
X76268560Y-71750407D01*
X76204062Y-71718320D01*
X76199728Y-71716899D01*
X76199725Y-71716898D01*
X75953207Y-71636085D01*
X75953202Y-71636084D01*
X75948874Y-71634665D01*
X75944382Y-71633885D01*
X75688064Y-71589380D01*
X75688056Y-71589379D01*
X75684283Y-71588724D01*
X75675622Y-71588293D01*
X75601004Y-71584578D01*
X75600996Y-71584578D01*
X75599433Y-71584500D01*
X75431777Y-71584500D01*
X75429509Y-71584665D01*
X75429497Y-71584665D01*
X75299177Y-71594121D01*
X75232154Y-71598984D01*
X75227699Y-71599968D01*
X75227696Y-71599968D01*
X74974380Y-71655895D01*
X74974376Y-71655896D01*
X74969920Y-71656880D01*
X74844354Y-71704453D01*
X74723059Y-71750407D01*
X74723056Y-71750408D01*
X74718789Y-71752025D01*
X74484024Y-71882426D01*
X74480392Y-71885198D01*
X74274167Y-72042583D01*
X74274163Y-72042587D01*
X74270542Y-72045350D01*
X74082815Y-72237386D01*
X73924775Y-72454509D01*
X73922651Y-72458547D01*
X73801860Y-72688132D01*
X73801857Y-72688138D01*
X73799735Y-72692172D01*
X73798215Y-72696477D01*
X73798213Y-72696481D01*
X73738804Y-72864715D01*
X73710312Y-72945397D01*
X73658380Y-73208878D01*
X73658153Y-73213431D01*
X73658153Y-73213434D01*
X73648992Y-73397474D01*
X73645028Y-73477095D01*
X71168910Y-73477095D01*
X71181612Y-69369608D01*
X71201824Y-69301550D01*
X71255623Y-69255223D01*
X71307609Y-69243998D01*
X102214544Y-69243432D01*
X133478204Y-69242860D01*
X133546324Y-69262861D01*
G37*
%TD.AperFunction*%
%TD*%
M02*
